<svg xmlns="http://www.w3.org/2000/svg" viewBox="0 0 32 32" class="v-icon"><path d="M28.113 23A13.84 13.84 0 0 0 30 16c0-7.732-6.268-14-14-14S2 8.268 2 16c0 7.73 6.27 14 14 14 3.866 0 7.366-1.565 9.898-4.102L23.42 23.42A10.452 10.452 0 0 1 16 26.5c-5.79 0-10.5-4.71-10.5-10.5S10.21 5.5 16 5.5 26.5 10.21 26.5 16c0 1.244-.24 2.433-.64 3.54l-.027-.04H23V9.038h-7a7 7 0 1 0 0 14c1.607 0 3.07-.565 4.252-1.474C20.888 22.412 21.858 23 23 23h5.114zM19.5 14.257v1.78c0 1.932-1.572 3.5-3.5 3.5s-3.5-1.568-3.5-3.5c0-1.93 1.572-3.5 3.5-3.5h3.5v1.72z"/></svg>