<svg xmlns="http://www.w3.org/2000/svg" viewBox="0 0 32 32" class="v-icon"><path d="M29.844 24A15.824 15.824 0 0 0 32 16c0-8.836-7.164-16-16-16S0 7.164 0 16s7.164 16 16 16a15.93 15.93 0 0 0 11.312-4.688L24.48 24.48A11.943 11.943 0 0 1 16 28C9.383 28 4 22.617 4 16S9.383 4 16 4s12 5.383 12 12c0 1.422-.273 2.781-.73 4.047L27.238 20H24V8.043h-8a8 8 0 0 0 0 16c1.836 0 3.508-.645 4.859-1.684C21.586 23.328 22.695 24 24 24h5.844zM20 14.008v2.035c0 2.207-1.797 4-4 4s-4-1.793-4-4 1.797-4 4-4h4v1.965z"/></svg>