<svg xmlns="http://www.w3.org/2000/svg" data-icon="basket" data-container-transform="translate(0 1)" viewBox="0 0 32 32" class="v-icon"><path d="M15.844.969a1.5 1.5 0 0 0-1.094.688l-7.5 11a1.508 1.508 0 1 0 2.5 1.688l7.5-11A1.5 1.5 0 0 0 16 .97a1.5 1.5 0 0 0-.156 0zm2.531 2.313a2.44 2.44 0 0 1-.313.625l-1.469 2.156 5.656 8.281a1.508 1.508 0 1 0 2.5-1.688l-6.375-9.375zM.5 13.001a.5.5 0 0 0-.5.5v2a.5.5 0 0 0 .5.5h1.75l3.625 14.5c.067.268.349.5.625.5h19c.276 0 .558-.232.625-.5l3.625-14.5h1.75a.5.5 0 0 0 .5-.5v-2a.5.5 0 0 0-.5-.5h-5.563a2.496 2.496 0 0 1-1 2.531 2.45 2.45 0 0 1-1.438.469c-.78 0-1.543-.38-2.031-1.063L20.062 13h-8.125l-1.406 1.938A2.503 2.503 0 0 1 8.5 16.001c-.503 0-.997-.154-1.438-.469a2.497 2.497 0 0 1-1-2.531H.499zm5.875 6a.524.524 0 0 1 .625.375l2 8a.527.527 0 0 1-.375.625c-.04.01-.084 0-.125 0a.513.513 0 0 1-.5-.375l-2-8a.527.527 0 0 1 .375-.625zm6.063 0a.506.506 0 0 1 .563.438l1 8a.508.508 0 0 1-.438.563c-.021.002-.041 0-.063 0a.504.504 0 0 1-.5-.438l-1-8a.508.508 0 0 1 .438-.563zm6.938 0c.063-.018.119-.009.188 0a.508.508 0 0 1 .438.563l-1 8a.504.504 0 0 1-.5.438c-.021 0-.041.002-.063 0a.508.508 0 0 1-.438-.563l1-8a.54.54 0 0 1 .375-.438zm6.031 0a.597.597 0 0 1 .219 0 .527.527 0 0 1 .375.625l-2 8a.514.514 0 0 1-.5.375c-.04 0-.084.01-.125 0a.527.527 0 0 1-.375-.625l2-8a.495.495 0 0 1 .406-.375z"/></svg>