<svg xmlns="http://www.w3.org/2000/svg" data-icon="bell" data-container-transform="translate(2)" viewBox="0 0 32 32" class="v-icon"><path d="M16 0a2 2 0 0 0-2 2c0 .447.159.855.406 1.188A6.997 6.997 0 0 0 9 10.001v1.031c0 3.899-.293 7.414-4 9.969-1.732 1.194-2.831 2.827-2.969 4.625v.094c-.005.095-.031.185-.031.281h.031v1H30v-1.375h-.031c-.139-1.798-1.237-3.431-2.969-4.625-3.707-2.555-4-6.07-4-9.969v-1.031a6.998 6.998 0 0 0-5.406-6.813C17.841 2.855 18 2.447 18 2a2 2 0 0 0-2-2zm-4 28a4 4 0 0 0 8 0h-8z"/></svg>