<svg xmlns="http://www.w3.org/2000/svg" viewBox="0 0 32 32" class="v-icon"><path d="M16.705 12.888l1.065-1.056 1.194 1.653V9.216l-2.259-.636zm8.903-6.725C20.677 4.783 15.755 3.373 10.822 2 10.329 2.205 6.195 5.246 6 5.5v19.937c0 .222.18.455.401.518l14.33 4.03c.221.062.402-.07.402-.293V10.274c-.031-.454-.035-.502-1.335-.78v6.572l-2.134-2.957-1.794 1.777V8.388L7.562 6.05c-.22-.062-.252-.223-.07-.358l3.125-2.308a.96.96 0 01.733-.133l13.168 3.712c.22.062.4.295.4.518v19.163c.114.21.956.217 1.082 0V6.675a.535.535 0 00-.392-.512zm-3.432 3.35a.576.576 0 00-.4-.518L9.97 5.637c-.258-.087-.215-.21.43-.82.624-.58.76-.56 1.163-.451l11.912 3.357c.22.063.4.296.4.518v18.202l-1.699 1.525V9.513z"/></svg>