<svg xmlns="http://www.w3.org/2000/svg" viewBox="0 0 48 48" class="v-icon"><path d="M22.817 2c.535 1.232.38 5.414.38 5.414-3.95-.05-6.604-.503-6.604-.503v2.113c2.373-.34 6.632-.504 6.632-.504s.596 36.391-.946 37.475l3.433-.004c-1.76-1.042-.878-37.468-.878-37.468 3.853.06 6.427.5 6.427.5v-2.11c-2.279.325-6.396.5-6.396.5s-.194-4.27.379-5.412h-2.427zm-.55 11.281l-6.905 9.294S14 24.353 14 28.844v11.068c.291 2.577.121 5.342 2.957 5.707 1.795.232 3.685.337 4.745.376l.004-2.112c-1.45.166-3.62-.046-3.62-.046s-2.127.358-2.127-5.282l-.06-8.738c0-4.492 1.487-6.267 1.487-6.267l4.72-6.58c.379-1.144.161-3.688.161-3.688zm3.468 0s-.221 2.625.16 3.688l4.718 6.581s1.49 1.775 1.49 6.268l-.062 8.737c0 5.64-2.127 5.283-2.127 5.283l-3.653-.004L26.26 46a55.87 55.87 0 0 0 4.786-.383c2.899-.375 2.736-3.775 2.955-5.705v-11.07c0-4.49-1.362-6.268-1.362-6.268l-6.903-9.293z"/></svg>