<svg xmlns="http://www.w3.org/2000/svg" viewBox="0 0 24 24" class="v-icon"><path d="M19.689 4.344a1.66 1.66 0 0 0-1.578-1.122H5.89A1.67 1.67 0 0 0 4.31 4.344L2 11v8.889C2 20.5 2.5 21 3.111 21h1.111c.611 0 1.111-.5 1.111-1.111v-1.111h13.334v1.11c0 .612.5 1.112 1.11 1.112h1.112C21.5 21 22 20.5 22 19.889V11l-2.311-6.656zm-13.8 11.1a1.664 1.664 0 0 1-1.667-1.666c0-.922.745-1.667 1.667-1.667s1.667.745 1.667 1.667-.745 1.666-1.667 1.666zm12.222 0a1.664 1.664 0 0 1-1.667-1.666c0-.922.745-1.667 1.667-1.667s1.667.745 1.667 1.667-.745 1.666-1.667 1.666zM4.222 9.89l1.667-5H18.11l1.667 5H4.222z"/></svg>