<svg xmlns="http://www.w3.org/2000/svg" data-icon="cart" data-container-transform="translate(0 2)" viewBox="0 0 32 32" class="v-icon"><path d="M1 2a1 1 0 1 0 1 1h2c.016 0 .121.079.125.094l4.281 16.531c.03.116-.019.543-.063.656l-1.438 3.781c.191-.032.394-.063.594-.063.167 0 .339.008.5.031l1.281-3.375c.103-.269.11-.553.094-.844.195.115.407.188.625.188h18c.552 0 1.079-.427 1.188-.969l2.625-13.063c.108-.542-.261-.969-.813-.969h-25a.894.894 0 0 0-.344.063l-.563-2.188v-.031a1.09 1.09 0 0 0-1.094-.844h-3zm6.5 23a2.5 2.5 0 1 0 0 5 2.5 2.5 0 0 0 0-5zm19 0a2.5 2.5 0 1 0 0 5 2.5 2.5 0 0 0 0-5zm-15.844 1c.147.31.263.648.313 1h12.063c.05-.352.166-.69.313-1H10.657z"/></svg>