<svg xmlns="http://www.w3.org/2000/svg" data-icon="cog" viewBox="0 0 32 32" class="v-icon"><path d="M14 0l-1.313 3.969c-1.01.278-1.984.679-2.875 1.188L6.093 3.282 3.28 6.095l1.844 3.75a12.23 12.23 0 0 0-1.156 2.844l-3.969 1.344v3.969l3.969 1.313c.278 1.01.679 1.984 1.188 2.875l-1.875 3.719 2.813 2.813 3.75-1.844a12.23 12.23 0 0 0 2.844 1.156l1.344 3.969h3.969l1.313-3.969a12.55 12.55 0 0 0 2.875-1.188l3.75 1.875 2.781-2.813-1.844-3.75a12.23 12.23 0 0 0 1.156-2.844l3.969-1.344v-3.969l-3.969-1.313a12.55 12.55 0 0 0-1.188-2.875l1.875-3.75-2.813-2.781-3.75 1.844a12.23 12.23 0 0 0-2.844-1.156L17.968.001h-3.969zm2 9a7 7 0 1 1 0 14 7 7 0 0 1 0-14z"/></svg>