<svg xmlns="http://www.w3.org/2000/svg" data-icon="command" viewBox="0 0 32 32" class="v-icon"><path d="M6.5 0C2.928 0 0 2.928 0 6.5S2.928 13 6.5 13H10v6H6.5C2.928 19 0 21.928 0 25.5S2.928 32 6.5 32s6.5-2.928 6.5-6.5V22h6v3.5c0 3.572 2.928 6.5 6.5 6.5s6.5-2.928 6.5-6.5-2.928-6.5-6.5-6.5H22v-6h3.5c3.572 0 6.5-2.928 6.5-6.5S29.072 0 25.5 0 19 2.928 19 6.5V10h-6V6.5C13 2.928 10.072 0 6.5 0zm0 3C8.45 3 10 4.55 10 6.5V10H6.5C4.55 10 3 8.45 3 6.5S4.55 3 6.5 3zm19 0C27.45 3 29 4.55 29 6.5S27.45 10 25.5 10H22V6.5C22 4.55 23.55 3 25.5 3zM13 13h6v6h-6v-6zm-6.5 9H10v3.5c0 1.95-1.55 3.5-3.5 3.5S3 27.45 3 25.5 4.55 22 6.5 22zM22 22h3.5c1.95 0 3.5 1.55 3.5 3.5S27.45 29 25.5 29 22 27.45 22 25.5V22z"/></svg>