<svg xmlns="http://www.w3.org/2000/svg" data-icon="copyright" viewBox="0 0 32 32" class="v-icon"><path d="M16 0C7.181 0 0 7.181 0 16c0 8.819 7.181 16 16 16 8.819 0 16-7.181 16-16 0-8.819-7.181-16-16-16zm0 3c7.197 0 13 5.803 13 13s-5.803 13-13 13S3 23.197 3 16 8.803 3 16 3zm0 4a9.007 9.007 0 0 0-6.375 2.625A9.007 9.007 0 0 0 7 16c0 2.436.982 4.661 2.563 6.281l.063.094C11.253 24.002 13.524 25 16.001 25s4.748-.998 6.375-2.625l-2.125-2.125c-1.087 1.087-2.585 1.75-4.25 1.75a5.975 5.975 0 0 1-6-6 5.975 5.975 0 0 1 6-6c1.665 0 3.163.663 4.25 1.75l2.125-2.125A9.007 9.007 0 0 0 16.001 7z"/></svg>