<svg xmlns="http://www.w3.org/2000/svg" viewBox="0 0 28 28" class="v-icon"><path d="M4.5 6C5.875 6 7 7.125 7 8.5v17C7 26.875 5.875 28 4.5 28h-2A2.507 2.507 0 0 1 0 25.5v-17C0 7.125 1.125 6 2.5 6h2zM26 8.547c1.188.688 2 1.984 2 3.453v12c0 2.203-1.797 4-4 4H10.5A2.507 2.507 0 0 1 8 25.5v-24A1.5 1.5 0 0 1 9.5 0H20c.828 0 1.984.484 2.562 1.062l2.375 2.375c.578.578 1.062 1.734 1.062 2.562v2.547zM14.5 24v-2c0-.281-.219-.5-.5-.5h-2c-.281 0-.5.219-.5.5v2c0 .281.219.5.5.5h2c.281 0 .5-.219.5-.5zm0-4v-2c0-.281-.219-.5-.5-.5h-2c-.281 0-.5.219-.5.5v2c0 .281.219.5.5.5h2c.281 0 .5-.219.5-.5zm0-4v-2c0-.281-.219-.5-.5-.5h-2c-.281 0-.5.219-.5.5v2c0 .281.219.5.5.5h2c.281 0 .5-.219.5-.5zm4 8v-2c0-.281-.219-.5-.5-.5h-2c-.281 0-.5.219-.5.5v2c0 .281.219.5.5.5h2c.281 0 .5-.219.5-.5zm0-4v-2c0-.281-.219-.5-.5-.5h-2c-.281 0-.5.219-.5.5v2c0 .281.219.5.5.5h2c.281 0 .5-.219.5-.5zm0-4v-2c0-.281-.219-.5-.5-.5h-2c-.281 0-.5.219-.5.5v2c0 .281.219.5.5.5h2c.281 0 .5-.219.5-.5zm4 8v-2c0-.281-.219-.5-.5-.5h-2c-.281 0-.5.219-.5.5v2c0 .281.219.5.5.5h2c.281 0 .5-.219.5-.5zm0-4v-2c0-.281-.219-.5-.5-.5h-2c-.281 0-.5.219-.5.5v2c0 .281.219.5.5.5h2c.281 0 .5-.219.5-.5zm0-4v-2c0-.281-.219-.5-.5-.5h-2c-.281 0-.5.219-.5.5v2c0 .281.219.5.5.5h2c.281 0 .5-.219.5-.5zm1.5-6V6h-2.5A1.5 1.5 0 0 1 20 4.5V2H10v8h14z"/></svg>