<svg xmlns="http://www.w3.org/2000/svg" viewBox="0 0 32 32" class="v-icon"><path d="M27.096 8.264c-.607-.828-1.454-1.796-2.384-2.726-.929-.93-1.898-1.777-2.726-2.384C20.576 2.12 19.892 2 19.5 2H5.937A2.19 2.19 0 0 0 3.75 4.188v23.625A2.19 2.19 0 0 0 5.938 30h20.125a2.19 2.19 0 0 0 2.187-2.188V10.75c0-.392-.12-1.076-1.154-2.486zm-3.62-1.49c.838.84 1.497 1.598 1.984 2.226h-4.21V4.79a23.917 23.917 0 0 1 2.225 1.985zM26.5 27.813c0 .238-.2.438-.438.438H5.938a.443.443 0 0 1-.437-.438V4.188c0-.237.2-.437.438-.437H19.5v6.125c0 .483.392.875.875.875H26.5v17.063zm-7.006-12.799h1.21l-1.396 6.184-1.813-8.695H14.58l-2.109 8.695-1.581-8.695H7.845l3.092 13.996h2.976L16 18.221l1.867 8.277h2.744l3.544-13.996h-4.66v2.511z"/></svg>