<svg xmlns="http://www.w3.org/2000/svg" viewBox="0 0 32 32" class="v-icon"><path d="M27.096 8.264c-.607-.828-1.454-1.796-2.384-2.726-.929-.93-1.898-1.777-2.726-2.384C20.576 2.12 19.892 2 19.5 2H5.937A2.19 2.19 0 0 0 3.75 4.188v23.625A2.19 2.19 0 0 0 5.938 30h20.125a2.19 2.19 0 0 0 2.187-2.188V10.75c0-.392-.12-1.076-1.154-2.486zm-3.62-1.49c.838.84 1.497 1.598 1.984 2.226h-4.21V4.79a23.917 23.917 0 0 1 2.225 1.985zM26.5 27.813c0 .238-.2.438-.438.438H5.938a.443.443 0 0 1-.437-.438V4.188c0-.237.2-.437.438-.437H19.5v6.125c0 .483.392.875.875.875H26.5v17.063zm-1.476-9.694c-.374-.367-1.2-.562-2.46-.579-.853-.01-1.88.066-2.958.217-.483-.279-.982-.582-1.372-.948-1.052-.981-1.93-2.345-2.477-3.844.036-.14.065-.264.094-.389 0 0 .593-3.365.436-4.503a1.336 1.336 0 0 0-.077-.322l-.052-.133c-.16-.371-.477-.765-.972-.743l-.298-.01c-.552 0-1.003.283-1.121.705-.36 1.324.011 3.305.683 5.872l-.172.418c-.481 1.172-1.083 2.353-1.615 3.395l-.07.135a57.593 57.593 0 0 1-1.526 2.812l-.475.251c-.035.018-.85.449-1.04.564-1.62.968-2.694 2.066-2.872 2.938-.056.278-.014.634.274.799l.46.23c.2.1.41.151.624.151 1.155 0 2.494-1.437 4.34-4.658a43.153 43.153 0 0 1 6.683-1.588c1.62.912 3.613 1.546 4.87 1.546.224 0 .417-.021.573-.063a.972.972 0 0 0 .569-.389c.244-.367.293-.873.227-1.391-.02-.154-.142-.344-.275-.474zM7.787 24.26c.211-.576 1.043-1.713 2.275-2.722.077-.063.268-.241.443-.408-1.288 2.055-2.15 2.873-2.718 3.13zm7.295-16.8c.371 0 .582.935.6 1.811.017.876-.188 1.492-.442 1.947-.211-.674-.313-1.736-.313-2.43 0 0-.015-1.328.155-1.328zm-2.176 11.972c.258-.463.528-.95.802-1.468a27.986 27.986 0 0 0 1.408-3.072c.627 1.14 1.407 2.109 2.324 2.885a8.8 8.8 0 0 0 .363.292c-1.865.369-3.477.818-4.896 1.363zm11.76-.105c-.115.07-.44.112-.65.112-.675 0-1.51-.31-2.682-.811.45-.034.863-.05 1.233-.05.677 0 .878-.003 1.54.166.663.169.672.512.558.584z"/></svg>