<svg xmlns="http://www.w3.org/2000/svg" viewBox="0 0 50 50"><path d="M37 16h8.8c1 2 2 5 2 8h-10c-.043-3.2-.31-6-.71-8.5zM33 4c5.1 2 9.2 5.7 12 10h-8.2c-1-4.9-2-8.3-4-10zm-7 10V2c1.8.08 3.6.37 5.3.84 1.3 2.2 2.9 5.7 4 11h-9.2zM15 34c-1-2-1-5-1-8h10v8.5h-9.5zm-.017-19h9.5v8.5h-10c.043-3.2.31-6 .71-8.5zm4-12c2-.5 3-.7 5-.8v12h-9.2c1-5.4 3-9.1 4-11zm-14 11c2.7-4.9 7.2-8.6 12-10-1 1.7-3 5.1-4 10h-8.5zm7.5 10h-10c.11-3 .8-5.9 2-8.5h9.1c-.4 2.5-.66 5.3-.7 8.5zm.73 10h-9c-1.1-2-1.9-5-2-8h10c.04 3.2.32 6 .72 8.5zm.28 1.7c.95 4.9 2.4 8.3 3.6 10-5-1-9.5-5-12-10h8.5zm11 0v12c-1.8-.056-3.5-.34-5.2-.78-1.3-2.1-3-5.7-4-11h9.2zm11 0c-1.1 5.4-2.7 9-4 11-1.7.46-3.4.71-5.2.79v-12h9.2zm-9.2-10h10c-.04 3.2-.32 6-.72 8.5h-9.5v-8.5zm10-1.7h-10v-8.5h9.5c.4 2.5.67 5.3.71 8.5zm1.7 1.7h10c-.11 3-.86 5.9-2 8.5h-8.8c.4-2.5.68-5.3.72-8.5zm7.2 10c-2.6 4.7-6.8 8.4-12 10 1.2-2.2 2.7-5.6 3.6-10h8.2z"/></svg>
