<svg xmlns="http://www.w3.org/2000/svg" data-icon="hammer" viewBox="0 0 32 32" class="v-icon"><path d="M17 0c7 3.031 4.984 6.016 4 7l-5 5-.656.656a2.42 2.42 0 0 1-.813.5l-2.063.688a2.407 2.407 0 0 0-.813.5L.342 25.657a.708.708 0 0 0-.125.781l2.563 5.125c.123.247.347.26.5.031l1.469-2.188c.153-.23.43-.586.625-.781l10.281-10.281c.195-.195.414-.549.5-.813l.656-2.031c.086-.263.304-.617.5-.813l.688-.688 5-5c.984-.984 1.969-1.031 3 0s0 1 1 2l1 1 4-4-1-1c-1-1-1 0-2-1s0-1-1-2l-1-1c-3-3-4-3-10-3z"/></svg>