<svg xmlns="http://www.w3.org/2000/svg" viewBox="0 0 24 24" class="v-icon"><path d="M12.902 6.317c-.673 0-1.177.489-1.177 1.16 0 .562.412.958 1.038.958a1.14 1.14 0 001.162-1.144c0-.594-.382-.98-1.023-.98zm-.306 3.545l-2.612.565v.55l1.254.198-.825 4.11c-.077.412-.139.764-.139 1.023 0 .78.385 1.192 1.133 1.192.814 0 1.65-.213 2.618-.596v-.627c-.454.138-.825.214-1.056.214-.484 0-.748-.29-.748-.84 0-.154.033-.374.077-.627l.98-5.17h-.672zM12 1C5.928 1 1 5.928 1 12s4.928 11 11 11 11-4.928 11-11S18.072 1 12 1zm0 19.8c-4.851 0-8.8-3.949-8.8-8.8 0-4.851 3.949-8.8 8.8-8.8 4.851 0 8.8 3.949 8.8 8.8 0 4.851-3.949 8.8-8.8 8.8z"/></svg>