<svg xmlns="http://www.w3.org/2000/svg" viewBox="0 0 24 24" class="v-icon"><path d="M12.82 6.834c-.612 0-1.07.444-1.07 1.055 0 .51.375.87.944.87.598 0 1.056-.46 1.056-1.04 0-.54-.347-.89-.93-.89zm-.278 3.222l-2.375.514v.5l1.14.18-.75 3.736c-.07.375-.126.695-.126.93 0 .71.35 1.084 1.03 1.084.74 0 1.5-.194 2.38-.542v-.57c-.413.126-.75.195-.96.195-.44 0-.68-.264-.68-.764 0-.14.03-.34.07-.57l.89-4.7h-.61zM12 2C6.48 2 2 6.48 2 12s4.48 10 10 10 10-4.48 10-10S17.52 2 12 2zm0 18c-4.41 0-8-3.59-8-8s3.59-8 8-8 8 3.59 8 8-3.59 8-8 8z"/></svg>