<svg xmlns="http://www.w3.org/2000/svg" viewBox="0 0 32 32" class="v-icon"><path d="M16.247 4.733c0 1.684 1.271 2.825 2.84 2.825s2.842-1.142 2.842-2.825c0-1.685-1.272-2.826-2.842-2.826-1.568 0-2.84 1.141-2.84 2.826zm-6.151 9.642c0 .334-.061 1.163.008 1.662l2.479-2.983c.513-.562 1.106-.955 1.409-.849s.47.463.371.795L10.26 26.59c-.473 1.588.421 3.148 2.599 3.504 3.189 0 5.084-2.158 6.948-4.955 0-.334.111-1.213.044-1.713l-2.479 2.982c-.514.562-1.151.955-1.455.85-.28-.098-.444-.41-.389-.721l4.132-13.653c.344-1.734-.59-3.312-2.564-3.514-2.076.001-5.136 2.209-7 5.005z"/></svg>