<svg xmlns="http://www.w3.org/2000/svg" viewBox="0 0 28 28" class="v-icon"><path d="M23.281 22.281V12.156h-2.109q.313.984.313 2.047 0 1.969-1 3.633t-2.719 2.633q-1.719.969-3.75.969-3.078 0-5.266-2.117t-2.188-5.117q0-1.062.313-2.047H4.672v10.125q0 .406.273.68t.68.273h16.703q.391 0 .672-.273t.281-.68zm-4.437-8.328q0-1.937-1.414-3.305t-3.414-1.367q-1.984 0-3.398 1.367-1.414 1.367-1.414 3.305 0 1.938 1.414 3.305 1.414 1.367 3.398 1.367 2 0 3.414-1.367 1.414-1.367 1.414-3.305zm4.437-5.625V5.75q0-.438-.313-.758t-.766-.32h-2.719q-.453 0-.766.32t-.313.758v2.578q0 .453.313.766t.766.313h2.719q.453 0 .766-.313t.313-.766zM26 5.078v17.844q0 1.266-.906 2.172-.906.906-2.172.906H5.078q-1.266 0-2.172-.906Q2 24.188 2 22.922V5.078q0-1.266.906-2.172Q3.812 2 5.078 2h17.844q1.266 0 2.172.906.906.906.906 2.172z"/></svg>