<svg xmlns="http://www.w3.org/2000/svg" viewBox="0 0 32 32" class="v-icon"><path d="M25.21 8.482a1.69 1.69 0 1 1-3.381 0 1.69 1.69 0 0 1 3.38 0m-9.208 12.214a4.695 4.695 0 1 1 0-9.39 4.695 4.695 0 0 1 0 9.39zm0-11.929a7.233 7.233 0 1 0 0 14.466 7.233 7.233 0 0 0 0-14.466M10.193 2c-1.5.068-2.523.306-3.419.655A6.906 6.906 0 0 0 4.28 4.279a6.904 6.904 0 0 0-1.624 2.495c-.348.896-.587 1.92-.655 3.42v11.614c.068 1.5.307 2.523.655 3.419.36.926.841 1.711 1.624 2.495a6.906 6.906 0 0 0 2.495 1.624c.896.348 1.92.587 3.42.655h11.614c1.5-.068 2.523-.307 3.419-.655a6.904 6.904 0 0 0 2.495-1.624 6.906 6.906 0 0 0 1.624-2.495c.348-.896.587-1.92.655-3.42V10.194c-.068-1.5-.307-2.523-.655-3.419a6.904 6.904 0 0 0-1.624-2.495 6.904 6.904 0 0 0-2.495-1.624c-.896-.349-1.92-.587-3.42-.655zm11.5 2.535c1.372.063 2.118.292 2.615.485.657.256 1.126.561 1.619 1.054.493.493.798.962 1.054 1.62.193.496.422 1.241.485 2.615v11.383c-.063 1.373-.292 2.12-.485 2.616a4.365 4.365 0 0 1-1.054 1.619 4.362 4.362 0 0 1-1.62 1.054c-.496.193-1.242.422-2.615.485H10.31c-1.373-.063-2.12-.292-2.616-.485a4.364 4.364 0 0 1-1.62-1.054 4.364 4.364 0 0 1-1.053-1.62c-.193-.496-.422-1.242-.485-2.615V10.31c.063-1.374.292-2.12.485-2.616a4.362 4.362 0 0 1 1.054-1.62 4.365 4.365 0 0 1 1.62-1.053c.496-.193 1.242-.422 2.615-.485"/></svg>