<svg xmlns="http://www.w3.org/2000/svg" viewBox="0 0 32 32" class="v-icon"><path d="M25.209 8.482a1.69 1.69 0 11-3.38 0 1.69 1.69 0 013.38 0M16 20.695a4.695 4.695 0 110-9.39 4.695 4.695 0 010 9.39zm0-11.928a7.233 7.233 0 100 14.466 7.233 7.233 0 000-14.466M10.193 2c-1.5.068-2.523.306-3.42.655A6.906 6.906 0 004.28 4.279a6.904 6.904 0 00-1.624 2.495c-.348.896-.587 1.92-.655 3.419v11.614c.068 1.5.307 2.523.655 3.42a6.92 6.92 0 001.624 2.494 6.905 6.905 0 002.495 1.624c.896.349 1.92.587 3.419.655h11.614c1.5-.068 2.523-.306 3.42-.655a6.904 6.904 0 002.494-1.624 6.906 6.906 0 001.624-2.495c.349-.896.587-1.92.655-3.419V10.193c-.068-1.5-.306-2.523-.655-3.42a6.904 6.904 0 00-1.624-2.494 6.904 6.904 0 00-2.495-1.624c-.896-.349-1.92-.587-3.419-.655zm11.499 2.535c1.373.063 2.118.292 2.615.485.657.256 1.127.56 1.62 1.054a4.37 4.37 0 011.053 1.62c.193.496.422 1.241.485 2.614v11.384c-.063 1.373-.292 2.118-.485 2.615a4.365 4.365 0 01-1.054 1.62 4.362 4.362 0 01-1.62 1.053c-.496.193-1.241.422-2.614.485H10.308c-1.373-.063-2.118-.292-2.615-.485a4.364 4.364 0 01-1.62-1.054 4.364 4.364 0 01-1.053-1.62c-.193-.496-.422-1.241-.485-2.614V10.308c.063-1.373.292-2.118.485-2.615a4.362 4.362 0 011.054-1.62 4.365 4.365 0 011.62-1.053c.496-.193 1.241-.422 2.614-.485"/></svg>