<svg xmlns="http://www.w3.org/2000/svg" data-icon="map" viewBox="0 0 32 32" class="v-icon"><path d="M2 0C.912 0 0 .912 0 2v28c0 1.088.912 2 2 2h28c1.088 0 2-.912 2-2V2c0-1.088-.912-2-2-2H2zm1 3h8.313l3 3-2.656 2.656a.507.507 0 1 0 .688.688l2.656-2.656 9.813 9.813-12.5 12.5H3.001v-26zm9.688 0h4.625L15 5.313 12.687 3zm6 0h10.313v9.313l-3.5 3.5L15.688 6l3-3zM12 13a4 4 0 0 0-4 4c0 3 4 8 4 8s4-5 4-8a4 4 0 0 0-4-4zm17 .688v5.625L26.187 16.5 29 13.687zm-17 1.313A2 2 0 1 1 12.001 19 2 2 0 0 1 12 15zm13.5 2.188l3.5 3.5v8.313H13.687L25.5 17.189z"/></svg>