<svg xmlns="http://www.w3.org/2000/svg" viewBox="0 0 24 24" class="v-icon"><path d="M12 18.984q2.906 0 4.945-2.039T18.984 12t-2.039-4.945T12 5.016 7.055 7.055 5.016 12t2.039 4.945T12 18.984zm8.953-7.968h2.063v1.969h-2.063q-.328 3.141-2.578 5.391t-5.391 2.578v2.063h-1.969v-2.063q-3.141-.328-5.391-2.578t-2.578-5.391H.983v-1.969h2.063q.328-3.141 2.578-5.391t5.391-2.578V.984h1.969v2.063q3.141.328 5.391 2.578t2.578 5.391zm-8.953-3q1.641 0 2.813 1.172t1.172 2.813-1.172 2.813T12 15.986t-2.813-1.172-1.172-2.813 1.172-2.813T12 8.016z"/></svg>