<svg xmlns="http://www.w3.org/2000/svg" viewBox="0 0 28 28" class="v-icon"><path d="M24 14q0 3.266-1.609 6.023t-4.367 4.367-6.023 1.609q-1.734 0-3.406-.5.922-1.453 1.219-2.562.141-.531.844-3.297.313.609 1.141 1.055t1.781.445q1.891 0 3.375-1.07t2.297-2.945.812-4.219q0-1.781-.93-3.344t-2.695-2.547-3.984-.984q-1.641 0-3.063.453T6.978 7.687 5.275 9.414t-1.047 2.023-.336 2.094q0 1.625.625 2.859t1.828 1.734q.469.187.594-.313.031-.109.125-.484t.125-.469q.094-.359-.172-.672-.797-.953-.797-2.359 0-2.359 1.633-4.055t4.273-1.695q2.359 0 3.68 1.281t1.32 3.328q0 2.656-1.07 4.516t-2.742 1.859q-.953 0-1.531-.68t-.359-1.633q.125-.547.414-1.461t.469-1.609.18-1.18q0-.781-.422-1.297t-1.203-.516q-.969 0-1.641.891t-.672 2.219q0 1.141.391 1.906l-1.547 6.531q-.266 1.094-.203 2.766-3.219-1.422-5.203-4.391T.003 13.998q0-3.266 1.609-6.023t4.367-4.367 6.023-1.609 6.023 1.609 4.367 4.367 1.609 6.023z"/></svg>