<svg xmlns="http://www.w3.org/2000/svg" viewBox="0 0 28 28" class="v-icon"><path d="M25.999 14.001q0 3.266-1.609 6.023-1.609 2.757-4.367 4.367-2.758 1.61-6.022 1.609-1.734 0-3.406-.5.922-1.453 1.219-2.562.14-.531.844-3.297.313.609 1.14 1.055.828.446 1.781.445 1.891 0 3.375-1.07t2.297-2.945q.813-1.875.812-4.219 0-1.781-.93-3.344t-2.695-2.547q-1.765-.984-3.984-.984-1.64 0-3.062.453T8.978 7.688q-.992.75-1.703 1.727-.711.977-1.047 2.023-.336 1.046-.336 2.094 0 1.625.625 2.859t1.828 1.734q.469.187.594-.313.03-.109.125-.484.094-.375.125-.469.094-.359-.172-.672-.797-.953-.797-2.359 0-2.359 1.633-4.055 1.633-1.696 4.272-1.695 2.36 0 3.68 1.281 1.321 1.281 1.32 3.328 0 2.656-1.07 4.516-1.07 1.86-2.742 1.859-.953 0-1.53-.68-.578-.68-.36-1.633.126-.547.415-1.461.288-.914.468-1.609.18-.695.18-1.18 0-.781-.422-1.297-.421-.516-1.202-.516-.97 0-1.641.891-.672.891-.672 2.219 0 1.141.39 1.906l-1.546 6.531q-.266 1.094-.203 2.766-3.22-1.422-5.203-4.391Q2 17.639 2 13.999q0-3.266 1.612-6.023Q5.22 5.219 7.979 3.609 10.737 1.999 14 2q3.265.001 6.023 1.609 2.758 1.608 4.367 4.367T26 13.999z"/></svg>