<svg xmlns="http://www.w3.org/2000/svg" viewBox="0 0 24 24" class="v-icon"><path d="M12.717 2C7.254 2 4.5 5.913 4.5 9.176c0 1.978.75 3.734 2.354 4.388.265.108.5.005.576-.285.053-.203.178-.714.235-.925.079-.285.048-.387-.164-.639-.464-.544-.76-1.254-.76-2.254 0-2.903 2.174-5.501 5.662-5.501 3.089 0 4.786 1.887 4.786 4.402 0 3.313-1.469 6.108-3.647 6.108-1.204 0-2.104-.994-1.814-2.213.346-1.458 1.015-3.028 1.015-4.077 0-.94-.507-1.724-1.55-1.724-1.23 0-2.218 1.27-2.218 2.973 0 1.085.369 1.818.369 1.818l-1.48 6.26c-.44 1.858-.066 4.136-.032 4.367.016.134.192.17.27.066.114-.148 1.58-1.957 2.076-3.761.143-.51.81-3.155.81-3.155.401.76 1.566 1.43 2.808 1.43 3.698 0 6.204-3.365 6.204-7.874C19.996 5.174 17.107 2 12.717 2z"/></svg>