<svg xmlns="http://www.w3.org/2000/svg" viewBox="0 0 32 32" class="v-icon"><path d="M6.053 18.864h19.862v6.054H6.053zM3.497 27.67h25.038v.842H3.497zm26.16-1.49h-1.84v-8.545s.85.085 1.092-.194v5.082c.014.234.371.235.374 0v-5.34c0-.357-.28-1.49-.78-1.49h-3.398v-4.208C25.105 6.24 20.989 2 15.969 2c-5.051 0-9.136 4.24-9.136 9.484v4.24H3.528c-.499 0-.78 1.101-.78 1.49v5.34c.01.24.363.25.374 0v-5.081c.145.242 1.03.161 1.03.161v8.514H2.373a.386.386 0 0 0-.374.388v3.107c.003.271.124.365.343.357h27.283a.386.386 0 0 0 .375-.39v-3.107c-.008-.236-.145-.326-.343-.324zM8.797 11.647c0-4.11 3.212-7.445 7.172-7.445 3.96 0 7.171 3.334 7.171 7.445v4.079h-.842V11.84c0-3.625-2.837-6.765-6.33-6.765-3.491 0-6.329 3.14-6.329 6.765v3.885h-.842zm7.795-1.003V9.057h-1.216v1.586h-1.559v1.262h1.528v3.787h-4.989v-3.884c0-3.205 2.526-6.02 5.613-6.02 3.087 0 5.612 2.783 5.612 6.02v3.884h-4.989v-3.755h1.528v-1.262h-1.528zM4.87 17.634H27.1v8.514H4.87zm24.414 11.653H2.717v-2.363h26.566z"/></svg>
