<svg xmlns="http://www.w3.org/2000/svg" viewBox="0 0 24 24" class="v-icon"><path d="M12.462 16.29a1.21 1.21 0 01-1.21 1.21 1.21 1.21 0 01-1.21-1.21 1.21 1.21 0 011.21-1.21 1.21 1.21 0 011.21 1.21zm1.298-7.736c.143-.478.238-.844.238-1.115 0-.59-.367-.939-1.004-.939-1.05 0-1.447.684-1.529 2.086l-.333 5.65h.832zM12 1C5.928 1 1 5.928 1 12s4.928 11 11 11 11-4.928 11-11S18.072 1 12 1zm0 19.8c-4.851 0-8.8-3.949-8.8-8.8 0-4.851 3.949-8.8 8.8-8.8 4.851 0 8.8 3.949 8.8 8.8 0 4.851-3.949 8.8-8.8 8.8z"/></svg>