<svg xmlns="http://www.w3.org/2000/svg" viewBox="0 0 28 28" class="v-icon"><path d="M20 14q0-.578-.469-.844l-8-5q-.484-.313-1.016-.031-.516.281-.516.875v10q0 .594.516.875.25.125.484.125.313 0 .531-.156l8-5q.469-.266.469-.844zm8 0q0 1.5-.016 2.344t-.133 2.133-.352 2.305q-.25 1.141-1.078 1.922t-1.937.906q-3.469.391-10.484.391T3.516 23.61q-1.109-.125-1.945-.906T.485 20.782q-.219-1.016-.336-2.305t-.133-2.133T0 14t.016-2.344.133-2.133.352-2.305q.25-1.141 1.078-1.922t1.937-.906Q6.985 3.999 14 3.999t10.484.391q1.109.125 1.945.906t1.086 1.922q.219 1.016.336 2.305t.133 2.133T28 14z"/></svg>