<svg xmlns="http://www.w3.org/2000/svg" width="48" height="48" viewBox="0 0 48 48" class="icon-gallery"><path d="M13.33 4.584l-.77 2.873.047.014-7.314 27.3-.05-.01-.745 2.79 3.945 1.06.026.1 14.82 3.97.17-.04 14.08 3.77 2.18-8.13.05-.01 1.99-7.44-.03-.1 4.67-17.37-7.14-1.91-.03.09-25.9-6.95zm2.125 3.56l27.3 7.313-5.392 20.113-27.297-7.312 5.39-20.115z" class="path1"/><path d="M18.295 21.355l1.81 3.098 4.705-4.43 2.398 4.19 6.34-5.59 1.585 12.966-20.936-5.62 4.098-4.62z" class="path2"/><path d="M19.648 18.308c-1.19-.32-1.896-1.544-1.577-2.733.32-1.19 1.55-1.898 2.74-1.578 1.19.32 1.9 1.543 1.58 2.732-.32 1.18-1.54 1.89-2.73 1.57z" class="path3"/><path d="M32.543 7.854l-.627.17-5.748-1.542 8.48-2.272 1.31 4.894-3.316-.89-.1-.36zm-27.3 7.316l1.88 7.02-1.54 5.748L1.6 13.068l8.586-2.302-.89 3.317-4.053 1.088zm5.212 30.942L8.913 40.36l11.508 3.083-9.96 2.67z" class="path1"/></svg>