<svg xmlns="http://www.w3.org/2000/svg" class="icon-link" viewBox="0 0 48 48"><path d="M28.072 1.6c-5.624 0-10.18 4.557-10.18 10.182V24c0 4.174 2.516 7.75 6.108 9.322V28.52c-1.242-1.12-2.037-2.724-2.037-4.52V11.782c0-3.368 2.74-6.11 6.11-6.11s6.108 2.742 6.108 6.11L34.19 24c0 1.796-.795 3.4-2.037 4.52v4.802c3.596-1.572 6.11-5.148 6.11-9.322V11.782C38.253 6.157 33.698 1.6 28.07 1.6z" class="path1"/><path d="M24 14.678v4.802c1.242 1.12 2.036 2.724 2.036 4.52v12.218c0 3.368-2.74 6.11-6.11 6.11-3.367 0-6.108-2.74-6.108-6.11V24c0-1.796.794-3.4 2.037-4.52v-4.802c-3.592 1.572-6.11 5.147-6.11 9.322v12.218c0 5.624 4.56 10.182 10.183 10.182 5.624 0 10.182-4.557 10.182-10.182V24c0-4.174-2.517-7.75-6.11-9.322z" class="path2"/></svg>