<?xml version="1.0" encoding="UTF-8" standalone="no"?>
<svg
   xmlns:dc="http://purl.org/dc/elements/1.1/"
   xmlns:cc="http://creativecommons.org/ns#"
   xmlns:rdf="http://www.w3.org/1999/02/22-rdf-syntax-ns#"
   xmlns:svg="http://www.w3.org/2000/svg"
   xmlns="http://www.w3.org/2000/svg"
   xmlns:sodipodi="http://sodipodi.sourceforge.net/DTD/sodipodi-0.dtd"
   xmlns:inkscape="http://www.inkscape.org/namespaces/inkscape"
   version="1.1"
   id="Your_Icon"
   x="0px"
   y="0px"
   width="47"
   height="46.999714"
   viewBox="5 -10 47 63.449614"
   enable-background="new 0 0 100 100"
   xml:space="preserve"
   inkscape:version="0.91 r"
   sodipodi:docname="default.svg"><metadata
     id="metadata19"><rdf:RDF><cc:Work
         rdf:about=""><dc:format>image/svg+xml</dc:format><dc:type
           rdf:resource="http://purl.org/dc/dcmitype/StillImage" /><dc:title /></cc:Work></rdf:RDF></metadata><defs
     id="defs17" /><sodipodi:namedview
     pagecolor="#ffffff"
     bordercolor="#666666"
     borderopacity="1"
     objecttolerance="10"
     gridtolerance="10"
     guidetolerance="10"
     inkscape:pageopacity="0"
     inkscape:pageshadow="2"
     inkscape:window-width="1920"
     inkscape:window-height="1053"
     id="namedview15"
     showgrid="false"
     fit-margin-left="1"
     fit-margin-top="1"
     fit-margin-right="1"
     fit-margin-bottom="1"
     inkscape:zoom="9.44"
     inkscape:cx="-12.938559"
     inkscape:cy="38.910809"
     inkscape:window-x="1920"
     inkscape:window-y="82"
     inkscape:window-maximized="1"
     inkscape:current-layer="g9938" /><g
     id="g3"
     transform="translate(-25.149998,-33.902387)"><g
       id="g9913"
       transform="matrix(-1,0,0,1,107.81667,-3.2648499e-6)"><g
         id="g9937"><g
           id="g9903"
           transform="matrix(0.84374993,0,0,0.84367426,11.979175,13.444329)"
           style="fill:#a0a5aa;fill-opacity:1"><text
             xml:space="preserve"
             style="font-style:normal;font-weight:normal;font-size:24.00107765px;line-height:125%;font-family:Sans;letter-spacing:0px;word-spacing:0px;fill:#666666;fill-opacity:1;stroke:none;stroke-width:1px;stroke-linecap:butt;stroke-linejoin:miter;stroke-opacity:1"
             x="-81.05027"
             y="82.073517"
             id="text10081"
             sodipodi:linespacing="125%"
             transform="scale(-0.99995511,1.0000449)"><tspan
               sodipodi:role="line"
               x="-81.05027"
               y="82.073517"
               id="tspan10085"
               style="font-style:italic;font-variant:normal;font-weight:normal;font-stretch:normal;font-size:19.00085258px;font-family:'Open Sans';-inkscape-font-specification:'Open Sans Italic';fill:#666666;fill-opacity:1">Default</tspan></text>
<g
             style="fill:#a0a5aa;fill-opacity:1"
             id="g9938"
             transform="matrix(-3.2000001,0,0,3.2002874,185.83051,-9.1116225)"><path
               style="fill:#a0a5aa;fill-opacity:1"
               d="m 45.828213,15.02775 c 0,-1.308775 -1.070816,-2.379591 -2.379591,-2.379591 -1.308775,0 -2.379591,1.070816 -2.379591,2.379591 0,1.308773 1.070816,2.379589 2.379591,2.379589 1.308775,0 2.379591,-1.070816 2.379591,-2.379589 z"
               id="path9944"
               inkscape:connector-curvature="0" /><path
               style="fill:#a0a5aa;fill-opacity:1"
               d="m 43.422139,7.1313559 c -4.311896,0 -7.808263,3.4963671 -7.808263,7.8082631 l -2.602754,0 3.470339,3.470338 3.470339,-3.470338 -2.602754,0 c 0,-3.357553 2.71554,-6.0730936 6.073093,-6.0730936 3.357553,0 6.073093,2.7155406 6.073093,6.0730936 0,3.357552 -2.71554,6.073093 -6.073093,6.073093 -1.310052,0 -2.524672,-0.425117 -3.522394,-1.12786 l -1.231971,1.249321 c 1.318729,1.006399 2.967141,1.613708 4.754365,1.613708 4.311897,0 7.808263,-3.496366 7.808263,-7.808262 0,-4.311896 -3.496366,-7.8082631 -7.808263,-7.8082631 z"
               id="path9929"
               inkscape:connector-curvature="0" /></g></g></g></g></g></svg>