<svg xmlns="http://www.w3.org/2000/svg" viewBox="0 0 24 24"><path d="z" fill="none"/><path d="M22.378 20.16l-6.61-6.61c.858-1.28 1.32-2.786 1.32-4.36 0-2.098-.817-4.07-2.3-5.552-1.482-1.482-3.453-2.298-5.55-2.298-2.096 0-4.067.816-5.55 2.298-1.482 1.483-2.3 3.454-2.3 5.55 0 2.097.818 4.068 2.3 5.55 1.483 1.483 3.454 2.3 5.55 2.3 1.594 0 3.114-.473 4.403-1.35l6.606 6.604c.223.223.633.174.915-.108l1.11-1.11c.283-.283.33-.692.11-.915zm-13.14-5.25c-3.155 0-5.722-2.566-5.722-5.72 0-3.157 2.567-5.724 5.722-5.724 3.156 0 5.723 2.567 5.723 5.723 0 3.153-2.565 5.72-5.72 5.72z" fill="#fff"/></svg>