<?xml version="1.0" encoding="UTF-8" standalone="no"?>
<svg
   xmlns:dc="http://purl.org/dc/elements/1.1/"
   xmlns:cc="http://creativecommons.org/ns#"
   xmlns:rdf="http://www.w3.org/1999/02/22-rdf-syntax-ns#"
   xmlns:svg="http://www.w3.org/2000/svg"
   xmlns="http://www.w3.org/2000/svg"
   xmlns:sodipodi="http://sodipodi.sourceforge.net/DTD/sodipodi-0.dtd"
   xmlns:inkscape="http://www.inkscape.org/namespaces/inkscape"
   viewBox="0 0 24 24"
   id="svg2"
   version="1.1"
   inkscape:version="0.48.4 r9939"
   width="100%"
   height="100%"
   sodipodi:docname="hamburger.svg">
  <metadata
     id="metadata16">
    <rdf:RDF>
      <cc:Work
         rdf:about="">
        <dc:format>image/svg+xml</dc:format>
        <dc:type
           rdf:resource="http://purl.org/dc/dcmitype/StillImage" />
        <dc:title></dc:title>
      </cc:Work>
    </rdf:RDF>
  </metadata>
  <defs
     id="defs14" />
  <sodipodi:namedview
     pagecolor="#ffffff"
     bordercolor="#666666"
     borderopacity="1"
     objecttolerance="10"
     gridtolerance="10"
     guidetolerance="10"
     inkscape:pageopacity="0"
     inkscape:pageshadow="2"
     inkscape:window-width="1085"
     inkscape:window-height="885"
     id="namedview12"
     showgrid="false"
     inkscape:zoom="9.8333333"
     inkscape:cx="-5.8967277"
     inkscape:cy="21.474624"
     inkscape:window-x="145"
     inkscape:window-y="92"
     inkscape:window-maximized="0"
     inkscape:current-layer="svg2" />
  <path
     fill="none"
     d="z"
     id="path4" />
  <path
     inkscape:connector-curvature="0"
     d="m 22.377628,20.158704 -6.609964,-6.610175 c 0.858439,-1.279737 1.319668,-2.784489 1.319668,-4.3600201 0,-2.0965536 -0.816394,-4.0676057 -2.298962,-5.5501733 -1.482567,-1.482356 -3.453408,-2.2987505 -5.5499608,-2.2987505 -2.0965532,0 -4.0676051,0.8163945 -5.5501726,2.2987505 -1.482356,1.4825676 -2.2987505,3.4536197 -2.2987505,5.5501733 0,2.0965531 0.8163945,4.0673941 2.2989619,5.5499611 1.4825673,1.482567 3.453408,2.298961 5.5501727,2.298961 1.5932793,0 3.1136663,-0.472004 4.4026983,-1.349036 l 6.603627,6.603203 c 0.222902,0.223114 0.63279,0.174519 0.915274,-0.107965 l 1.109655,-1.109654 c 0.282484,-0.282485 0.330867,-0.692372 0.107753,-0.915275 z M 9.2384092,14.911087 c -3.1557109,0 -5.7227901,-2.567078 -5.7227901,-5.7225781 0,-3.1555003 2.5672904,-5.7227903 5.7227901,-5.7227903 3.1554998,0 5.7225788,2.56729 5.7225788,5.7227903 0,3.1555001 -2.567079,5.7225781 -5.7225788,5.7225781 z"
     id="path3"
     style="fill:#ffffff;fill-opacity:1" />
</svg>
