<svg xmlns="http://www.w3.org/2000/svg" width="404" height="404"><path d="M390.64 201.758c0 104.282-84.538 188.82-188.82 188.82-104.28 0-188.818-84.538-188.818-188.82s84.537-188.82 188.82-188.82c104.28 0 188.817 84.538 188.817 188.82z" fill="#01905a" fill-rule="evenodd" stroke="#2980b9" stroke-width="21.903"/><path d="M381.708 201.92c0 99.328-80.52 179.848-179.847 179.848-99.32 0-179.84-80.52-179.84-179.847 0-99.32 80.52-179.84 179.85-179.84s179.85 80.52 179.85 179.85z" fill="#e2e8ea" fill-rule="evenodd" stroke="#f5d657" stroke-width="11.675"/><path d="M273.076 267.434c-5.846 21.482-10.813 44.167-39.1 44.167-28.286 0-51.217-18.04-51.217-40.31 0-22.26 22.93-40.31 51.21-40.31s45.16 14.19 39.1 36.46z" fill="#f2d22f"/><path d="M208.543 217.214c-.075 7.917-22.27 16.424-22.27 16.424s-1.477 34.425-2.774 44.09c-.79 5.826-11.48 5.737-17.67 5.737-7.64 0-14.02 11.042-16.41-3.52-.78-4.718 7.39-45.572 5.63-47.764-8.95-11.11-28.59 4.83-28.59-14.96 0-35.74 10.96-57.25 42.41-56.18 33.15 1.14 40 20.44 39.66 56.19z" fill="#fff"/><path d="M199.42 344.018c-4.678-1.89-14.765-7.155-19.004-9.92-17.317-11.294-28.73-22.29-39.71-38.265-4.107-5.977-13.138-21.254-13.704-24.002 0 0 163.836-85.73 163.78-85.72.343 18.54-1.297 38.36-4.562 55.5-2.916 14.88-8.14 31.22-12.983 40.61-.614 1.19-1.254 2.6-1.423 3.14-.858 2.73-10.1 17.22-14.044 22.02-.704.86-1.35 1.77-1.434 2.02-.085.25-2.652 3.02-5.705 6.14-10.59 10.85-19.64 17.31-33.33 23.8-6.47 3.07-13.23 5.65-14.71 5.63-.5-.01-1.93-.422-3.16-.92zm32.36-44.09c9.962-.618 17.186-2.855 20.948-6.486 2.007-1.937 2.526-3.186 3.517-8.456 1.95-10.38 5.607-17.847 12.096-24.704 1.48-1.554 2.68-3.085 2.68-3.4 0-.848-2.7-2.043-5.82-2.57-2.13-.36-3.33-.356-5.52.024-2.68.466-2.91.595-5.9 3.37l-3.1 2.885-2.18-.55c-3.1-.78-6.75.05-8.33 1.9-.29.35-.87.81-1.28 1.02-.64.34-.89.07-1.94-2.06-1.08-2.21-1.13-2.49-.54-2.84 3.94-2.33 4.688-3.34 4.878-6.53.116-1.96-.036-2.77-.784-4.18-.78-1.47-1.28-1.89-3.11-2.59-1.92-.74-2.233-1.02-2.635-2.34-1.078-3.55-3.378-5.19-7.27-5.19-3.976 0-7.138 2.2-7.976 5.55-.207.81-.62 1.16-1.73 1.45-3.23.85-4.87 3.18-4.87 6.916 0 2.93.89 4.34 3.75 5.93 2.47 1.37 2.46 1.278.667 4.69-.94 1.79-1.2 1.884-2.22.786-.404-.435-1.545-1.31-2.536-1.95-2.07-1.335-4.39-1.53-6.76-.564-1.35.55-1.5.544-1.854-.074-.81-1.41-3.694-4.12-5.15-4.843-2.1-1.04-4.565-1.294-7.254-.752-2.46.496-6.01 2.54-6.21 3.578-.07.35 1.08 2.19 2.55 4.09 7.81 10.06 9.885 14.663 10.565 23.404.33 4.24.52 5.08 1.416 6.4 2.01 2.953 6.16 5.195 12.64 6.826 6.427 1.62 10.174 1.87 19.29 1.306z" fill="#2980b9"/><path d="M116.885 218.473c-.822-8.607-1.97-29.812-2.243-41.482l-.28-11.91 6.132-.26c3.373-.14 7.257-.26 8.63-.26 2.88 0 2.987-.12 2.987-3.34v-2.11h141.51v4.95l3.67.26c2.02.14 5.9.26 8.62.26h4.95v22.4c.11.48-163.84 85.14-163.84 85.14-6.6-16.78-8.13-33.36-10.12-53.62z" fill="#16a085"/><path d="M176.138 85.31l26.485-24.732 26.096 22.98 37.39 43.427-6.63 28.043-111.4.78-9.15-32.912z" fill="#fff"/><path d="M210.72 79.912l54.543 51.027-3 12.06H210.72zm-66.498 63.09l-3.118-11.847L194.9 80.203v62.8z" fill="#16a085"/><path d="M249.358 280.88c-7.714-3.33-13.817-4.646-21.496-4.638-7.386.01-12.407.972-20.287 3.89-2.343.868-4.323 1.577-4.4 1.577-.078 0-.517-3.53-.976-4.98-1.12-3.55-3.69-8.83-6.26-12.87-1.16-1.82-2.01-3.42-1.89-3.54.55-.57 3.93-.57 5 0 1.21.65 2.78 3.33 3.57 6.08.26.93.72 1.79 1.01 1.91.29.11 1.54-.53 2.77-1.44 3.13-2.29 4.31-2.43 5.94-.67.7.75 1.58 2.31 1.95 3.45.77 2.37 1.45 2.7 3.5 1.69 4.31-2.12 7.94-9.13 8.76-16.92 0 0-.13-7.9-.1-7.94-.26-2.23.32-3.51 1.58-3.51 1.19 0 1.7 1.03 1.7 3.49 0 0 .25 7.894.75 12.31.56 3.63 1.99 6.62 4.43 9.29 3.21 3.502 5.4 3.952 6.59 1.36.78-1.7 2.845-3.35 4.54-3.638 1.173-.197 1.525-.014 3.46 1.802 1.184 1.11 2.41 1.963 2.73 1.9.315-.07.884-.97 1.262-2.007 1.096-3 3.433-5.898 5.7-7.07 2.023-1.045 3.72-1.334 3.72-.634 0 .22-.746 1.44-1.66 2.73-2.216 3.125-4.79 8.705-6.277 13.605-.67 2.202-1.405 6.33-1.637 6.31-.23-.02-2.035-.73-4.006-1.58z" fill="#f5d657" stroke="#f5d657" stroke-width="4.845"/><path d="M219.702 298.545c-7.44-.895-15.534-4.545-17.256-7.78-.554-1.043-.535-1.148.315-1.69 3.26-2.07 11.97-5.296 16.43-6.086 3.8-.68 13.55-.56 17.34.21 7.4 1.49 17.45 5.46 17.45 6.88 0 1.03-3.24 3.92-5.76 5.12-6.68 3.18-18.4 4.55-28.5 3.34z" fill="#f5d657"/><path d="M144.92 155.55l-2.254-7.282h57.677V66.944l-59.792 57.19-2.19-8.29 64.86-60.974 64.18 61.592-1.98 8.29-60.32-57.814v81.324s56.69.233 56.7 0l-1.2 7.693z" fill="#f5d657" stroke="#f5d657" stroke-width="2.648"/><path d="M131.49 159.734c-.118-.117-.214-1.935-.214-4.042v-3.83l1.635-8.32 5.94-4.358 4.36-.286 4.02 16.748h112.06l3.84-16.68 6.12.446 3.32 6.336 1.87 6.29.008 3.788.006 3.788-69.946.002c-38.47 0-70.58.076-71.36.166-.78.09-1.518.068-1.63-.05z" fill="#555"/><path d="M107.513 157.34v-7.46l5.176-5.497 5.17-5.496h11.26c6.19 0 11.26.07 11.26.153 0 .083-1.72 2.69-3.83 5.795l-3.83 5.643V164.8H107.5v-7.46zm165.992.685v-6.777l-4.09-6.1-4.09-6.103 10.532-.08 10.533-.078 5.32 5.65 5.322 5.648V164.8h-23.527v-6.775zm-75.7 41.565c0 16.543-13.41 29.955-29.956 29.955s-29.96-13.412-29.96-29.956c0-16.55 13.41-29.96 29.95-29.96s29.95 13.41 29.95 29.95z" fill="#fff"/><path d="M162.627 202.63h9.69s3.96 68.02 3.91 68.068h-17.14z" fill="#fff" stroke="#f5d657" stroke-width="4.3"/><path d="M165.91 195.2l-.186 8.115-30.44 3.215v-15.3s30.658 4.05 30.627 3.97z" fill="#fff" stroke="#f5d657" stroke-width="4.924"/><path d="M162.502 194.665l-1.17-26.328h13.5l-1.46 26.464z" fill="#fff" stroke="#f5d657" stroke-width="4.867"/><path d="M170.276 203.298l.024-8.347 29.57-2.82.12 14.8c-.04.03-29.714-3.62-29.714-3.62z" fill="#fff" stroke="#f5d657" stroke-width="5.194"/><path d="M236.275 252.124c0 1.827-3.474 1.86-7.76 1.86-4.285 0-7.777-.033-7.76-1.86.018-1.828 3.475-1.86 7.76-1.86 4.286 0 7.76.032 7.76 1.86z" fill="#f1c40f" stroke="#f5d657" stroke-width="5.063"/><path d="M377.303 202.4c0 96.883-78.54 175.422-175.422 175.422-96.88 0-175.42-78.54-175.42-175.422 0-96.883 78.54-175.422 175.42-175.422 96.89 0 175.43 78.54 175.43 175.422z" stroke="#16a085" stroke-width="14.268" fill="none"/><path d="M179.625 198.83c0 6.544-5.304 11.85-11.848 11.85-6.544 0-11.85-5.306-11.85-11.85 0-6.543 5.306-11.848 11.85-11.848s11.848 5.305 11.848 11.848z" fill="#fff"/></svg>