<svg xmlns="http://www.w3.org/2000/svg" viewBox="0 0 32 32"><path d="M28.113 23c1.2-2.06 1.887-4.443 1.887-7 0-7.732-6.268-14-14-14S2 8.268 2 16c0 7.73 6.27 14 14 14 3.866 0 7.366-1.565 9.898-4.102L23.42 23.42c-1.9 1.904-4.525 3.08-7.42 3.08-5.79 0-10.5-4.71-10.5-10.5S10.21 5.5 16 5.5 26.5 10.21 26.5 16c0 1.244-.24 2.433-.64 3.54l-.027-.04H23V9.038h-7c-3.866 0-7 3.134-7 7 0 3.865 3.134 7 7 7 1.607 0 3.07-.565 4.252-1.474C20.888 22.412 21.858 23 23 23h5.114zM19.5 14.257v1.78c0 1.932-1.572 3.5-3.5 3.5s-3.5-1.568-3.5-3.5c0-1.93 1.572-3.5 3.5-3.5h3.5v1.72z"/></svg>