<?xml version="1.0" encoding="UTF-8" standalone="no"?>
<svg
   xmlns:dc="http://purl.org/dc/elements/1.1/"
   xmlns:cc="http://creativecommons.org/ns#"
   xmlns:rdf="http://www.w3.org/1999/02/22-rdf-syntax-ns#"
   xmlns:svg="http://www.w3.org/2000/svg"
   xmlns="http://www.w3.org/2000/svg"
   xmlns:sodipodi="http://sodipodi.sourceforge.net/DTD/sodipodi-0.dtd"
   xmlns:inkscape="http://www.inkscape.org/namespaces/inkscape"
   version="1.1"
   x="0px"
   y="0px"
   viewBox="0 0 31.999999 32"
   enable-background="new 0 0 69.328 100"
   xml:space="preserve"
   id="svg2"
   inkscape:version="0.91 r13725"
   sodipodi:docname="book-closed.svg"
   width="32"
   height="32"><metadata
     id="metadata16"><rdf:RDF><cc:Work
         rdf:about=""><dc:format>image/svg+xml</dc:format><dc:type
           rdf:resource="http://purl.org/dc/dcmitype/StillImage" /><dc:title></dc:title></cc:Work></rdf:RDF></metadata><defs
     id="defs14" /><sodipodi:namedview
     pagecolor="#ffffff"
     bordercolor="#666666"
     borderopacity="1"
     objecttolerance="10"
     gridtolerance="10"
     guidetolerance="10"
     inkscape:pageopacity="0"
     inkscape:pageshadow="2"
     inkscape:window-width="640"
     inkscape:window-height="480"
     id="namedview12"
     showgrid="false"
     fit-margin-top="2"
     fit-margin-bottom="2"
     fit-margin-left="6"
     fit-margin-right="6"
     inkscape:zoom="10.550396"
     inkscape:cx="42.653273"
     inkscape:cy="22.069896"
     inkscape:current-layer="g4" /><g
     id="g4"
     transform="translate(1.1373668,-62.49151)"><path
       id="polygon10"
       d="m 15.567976,75.379307 1.065081,-1.05588 1.193169,1.652839 0,-4.268598 -2.25825,-0.63616 z m 8.902608,-6.725038 C 19.53943,67.275175 14.617592,65.864484 9.6846388,64.49151 9.191503,64.696628 5.0581132,67.737685 4.8626332,67.992069 l 0,19.935994 c 0,0.222879 0.1805908,0.455839 0.4012809,0.517999 l 14.3304299,4.030039 c 0.220401,0.06216 0.401281,-0.06944 0.401281,-0.29232 l 0,-19.418554 c -0.03145,-0.453276 -0.03506,-0.50166 -1.335103,-0.780359 l 0,6.572998 -2.133914,-2.957639 -1.793504,1.777159 0,-6.497958 -8.3089084,-2.337999 c -0.2204015,-0.06188 -0.2512693,-0.22288 -0.068659,-0.35784 l 3.1239902,-2.30832 c 0.1826105,-0.13496 0.5126356,-0.19432 0.7327482,-0.13244 l 13.168417,3.711679 c 0.220401,0.06216 0.400705,0.2954 0.400705,0.518 l 0,19.162957 c 0.112743,0.210149 0.955028,0.217209 1.081236,0 l 0,-19.968517 c 0,-0.238559 -0.160685,-0.447159 -0.392049,-0.512679 z m -3.432091,3.350198 c 0,-0.222599 -0.180303,-0.455839 -0.400703,-0.517999 L 8.8321675,68.128989 C 8.5749746,68.041868 8.6176438,67.919212 9.2624521,67.308004 9.8869034,66.728056 10.022865,66.747567 10.426042,66.857509 l 11.911493,3.357479 c 0.220402,0.06216 0.400704,0.2954 0.400704,0.518 l 0,18.201114 -1.699378,1.525606 0,-18.455241 z"
       inkscape:connector-curvature="0"
       sodipodi:nodetypes="ccccccccccccscccccccccccsccscccccccscccc" /></g></svg>