<?xml version="1.0" encoding="UTF-8" standalone="no"?>
<svg
   xmlns:dc="http://purl.org/dc/elements/1.1/"
   xmlns:cc="http://creativecommons.org/ns#"
   xmlns:rdf="http://www.w3.org/1999/02/22-rdf-syntax-ns#"
   xmlns:svg="http://www.w3.org/2000/svg"
   xmlns="http://www.w3.org/2000/svg"
   xmlns:sodipodi="http://sodipodi.sourceforge.net/DTD/sodipodi-0.dtd"
   xmlns:inkscape="http://www.inkscape.org/namespaces/inkscape"
   fill="#000000"
   height="24"
   viewBox="0 0 24 24"
   width="24"
   id="svg2"
   version="1.1"
   inkscape:version="0.91 r13725"
   sodipodi:docname="ic_drive_eta_black_24px.svg">
  <metadata
     id="metadata12">
    <rdf:RDF>
      <cc:Work
         rdf:about="">
        <dc:format>image/svg+xml</dc:format>
        <dc:type
           rdf:resource="http://purl.org/dc/dcmitype/StillImage" />
      </cc:Work>
    </rdf:RDF>
  </metadata>
  <defs
     id="defs10" />
  <sodipodi:namedview
     pagecolor="#ffffff"
     bordercolor="#666666"
     borderopacity="1"
     objecttolerance="10"
     gridtolerance="10"
     guidetolerance="10"
     inkscape:pageopacity="0"
     inkscape:pageshadow="2"
     inkscape:window-width="1920"
     inkscape:window-height="1056"
     id="namedview8"
     showgrid="false"
     inkscape:zoom="9.8333333"
     inkscape:cx="-6.661017"
     inkscape:cy="12"
     inkscape:window-x="0"
     inkscape:window-y="24"
     inkscape:window-maximized="1"
     inkscape:current-layer="svg2" />
  <path
     d="M 19.688889,4.3444444 C 19.466667,3.6888889 18.844444,3.2222222 18.111111,3.2222222 l -12.2222221,0 c -0.7333333,0 -1.3444445,0.4666667 -1.5777778,1.1222222 L 2,11 2,19.888889 C 2,20.5 2.5,21 3.1111111,21 l 1.1111111,0 c 0.6111111,0 1.1111111,-0.5 1.1111111,-1.111111 l 0,-1.111111 13.3333337,0 0,1.111111 C 18.666667,20.5 19.166667,21 19.777778,21 l 1.111111,0 C 21.5,21 22,20.5 22,19.888889 L 22,11 19.688889,4.3444444 Z M 5.8888889,15.444444 c -0.9222222,0 -1.6666667,-0.744444 -1.6666667,-1.666666 0,-0.922222 0.7444445,-1.666667 1.6666667,-1.666667 0.9222222,0 1.6666667,0.744445 1.6666667,1.666667 0,0.922222 -0.7444445,1.666666 -1.6666667,1.666666 z m 12.2222221,0 c -0.922222,0 -1.666667,-0.744444 -1.666667,-1.666666 0,-0.922222 0.744445,-1.666667 1.666667,-1.666667 0.922222,0 1.666667,0.744445 1.666667,1.666667 0,0.922222 -0.744445,1.666666 -1.666667,1.666666 z M 4.2222222,9.888889 5.8888889,4.8888889 l 12.2222221,0 1.666667,5.0000001 -15.5555558,0 z"
     id="path4"
     inkscape:connector-curvature="0" />
</svg>
