<?xml version="1.0" encoding="utf-8"?>
<!-- Generated by IcoMoon.io -->
<!DOCTYPE svg PUBLIC "-//W3C//DTD SVG 1.1//EN" "http://www.w3.org/Graphics/SVG/1.1/DTD/svg11.dtd">
<svg version="1.1" xmlns="http://www.w3.org/2000/svg" xmlns:xlink="http://www.w3.org/1999/xlink" width="28" height="28" viewBox="0 0 28 28">
<path fill="#444" d="M22.672 2q0.547 0 0.938 0.391t0.391 0.938v21.344q0 0.547-0.391 0.938t-0.938 0.391h-6.109v-9.297h3.109l0.469-3.625h-3.578v-2.312q0-0.875 0.367-1.313t1.43-0.438l1.906-0.016v-3.234q-0.984-0.141-2.781-0.141-2.125 0-3.398 1.25t-1.273 3.531v2.672h-3.125v3.625h3.125v9.297h-11.484q-0.547 0-0.938-0.391t-0.391-0.938v-21.344q0-0.547 0.391-0.938t0.938-0.391h21.344z"></path>
</svg>
