<svg xmlns="http://www.w3.org/2000/svg" width="32" height="32" viewBox="0 0 32 32"><path d="M16 2C8.27 2 2 8.268 2 16c0 7.731 6.269 14 14 14a14.1 14.1 0 0 0 2.765-.273c-.361-.173-.4-1.464-.044-2.201.397-.82 1.64-2.898.411-3.596-1.23-.698-.889-1.012-1.64-1.819-.752-.807-.445-.927-.493-1.135-.164-.71.725-1.777.766-1.887.04-.11.04-.519.026-.642-.014-.124-.56-.452-.697-.465-.138-.013-.206.22-.397.232-.191.013-1.025-.506-1.203-.642-.177-.137-.26-.465-.506-.711-.246-.246-.273-.055-.657-.205s-1.614-.602-2.556-.985c-.943-.383-1.026-.92-1.04-1.298-.014-.38-.574-.93-.838-1.327-.262-.397-.311-.944-.407-.82-.095.123.493 1.558.397 1.6-.096.04-.301-.397-.574-.753-.273-.356.287-.165-.588-1.887s.273-2.6.328-3.5c.055-.9.738.328.382-.246-.355-.574.027-1.777-.246-2.214-.273-.438-1.831.492-1.831.492.04-.423 1.367-1.148 2.324-1.819.956-.67 1.54-.15 2.31.096.769.246.82.165.56-.082-.26-.246.11-.368.71-.273.601.096.766.82 1.682.753.915-.068.095.177.219.41.124.234-.137.206-.739.615-.602.41.014.411 1.08 1.19 1.067.78.74-.519.63-1.094-.11-.575.779-.122.779-.122.657.437.535.024 1.014.175.478.15 1.776 1.247 1.776 1.247-1.628.889-.602.984-.328 1.19.274.205-.56.602-.56.602-.342-.342-.397.014-.615.136-.218.123-.014.438-.014.438-1.132.177-.875 1.367-.861 1.654.014.287-.725.725-.916 1.135-.191.41.492 1.299.136 1.353-.355.055-.71-1.339-2.625-.82-.577.157-1.86.82-1.176 2.174.684 1.353 1.82-.383 2.202-.192.383.192-.11 1.053-.027 1.067.083.014 1.08.037 1.135 1.203.055 1.165 1.518 1.066 1.832 1.094.314.028 1.367-.861 1.518-.902.15-.04.752-.547 2.065.205 1.313.753 1.982.643 2.434.957.451.314.136.944.56 1.148.423.204 2.119-.069 2.543.629.425.698-1.75 4.198-2.434 4.58-.683.383-.997 1.258-1.68 1.82a22.038 22.038 0 0 1-2.544 1.79c-.8.475-.943 1.325-1.299 1.595C25.314 28.278 30 22.687 30 16.003 30 8.272 23.731 2 16 2zm3.283 13.139c-.192.055-.588.41-1.56-.165-.97-.575-1.64-.464-1.722-.56 0 0-.082-.232.341-.273.87-.084 1.97.807 2.215.82.245.015.369-.246.806-.104.438.14.11.228-.082.282zM14.702 3.394c-.096-.069.08-.15.183-.287.06-.08.015-.212.091-.287.206-.205 1.217-.492 1.019.069-.199.561-1.142.615-1.293.506zm2.447 1.778c-.342-.014-1.147-.099-.998-.246.578-.574-.22-.739-.71-.78-.492-.04-.698-.314-.452-.341.246-.027 1.23.014 1.394.15.164.137 1.053.493 1.107.753.055.26 0 .478-.341.464zm2.967-.095c-.273.219-1.65-.786-1.915-1.012-1.148-.985-1.764-.657-2.004-.82-.24-.163-.156-.383.213-.71.369-.329 1.408.109 2.01.177.602.067 1.299.533 1.313 1.086.014.553.657 1.06.383 1.28z" fill="#444"/></svg>
