<svg xmlns="http://www.w3.org/2000/svg" width="32" height="32" viewBox="0 0 32 32">
    <path d="M16.25 4.807c0 1.673 1.286 2.807 2.874 2.807S22 6.479 22 4.807C22 3.133 20.713 2 19.124 2c-1.587 0-2.874 1.133-2.874 2.807zm-6.225 9.578c0 .332-.062 1.156.008 1.651l2.509-2.963c.52-.558 1.12-.949 1.426-.843.307.105.476.46.375.79l-4.152 13.5c-.479 1.577.426 3.126 2.63 3.48 3.228 0 5.145-2.144 7.032-4.922 0-.332.112-1.205.044-1.702l-2.509 2.962c-.52.559-1.164.95-1.472.845-.283-.098-.45-.407-.394-.716l4.182-13.563c.348-1.722-.597-3.29-2.595-3.49-2.1 0-5.197 2.194-7.084 4.971z" fill="#444"/>
</svg>
