<?xml version="1.0" encoding="UTF-8" standalone="no"?>
<svg
   xmlns:dc="http://purl.org/dc/elements/1.1/"
   xmlns:cc="http://creativecommons.org/ns#"
   xmlns:rdf="http://www.w3.org/1999/02/22-rdf-syntax-ns#"
   xmlns:svg="http://www.w3.org/2000/svg"
   xmlns="http://www.w3.org/2000/svg"
   xmlns:sodipodi="http://sodipodi.sourceforge.net/DTD/sodipodi-0.dtd"
   xmlns:inkscape="http://www.inkscape.org/namespaces/inkscape"
   width="32"
   height="32"
   viewBox="0 0 32 32"
   version="1.1"
   id="svg2"
   inkscape:version="0.91 r13725"
   sodipodi:docname="instagram.svg">
  <defs
     id="defs8" />
  <metadata
     id="metadata20">
    <rdf:RDF>
      <cc:Work
         rdf:about="">
        <dc:format>image/svg+xml</dc:format>
        <dc:type
           rdf:resource="http://purl.org/dc/dcmitype/StillImage" />
        <dc:title />
      </cc:Work>
    </rdf:RDF>
  </metadata>
  <sodipodi:namedview
     pagecolor="#ffffff"
     bordercolor="#666666"
     borderopacity="1"
     objecttolerance="10"
     gridtolerance="10"
     guidetolerance="10"
     inkscape:pageopacity="0"
     inkscape:pageshadow="2"
     inkscape:window-width="1680"
     inkscape:window-height="982"
     id="namedview18"
     showgrid="false"
     units="px"
     fit-margin-left="2"
     fit-margin-top="2"
     fit-margin-bottom="2"
     fit-margin-right="2"
     inkscape:zoom="16.957988"
     inkscape:cx="5.469743"
     inkscape:cy="16.740829"
     inkscape:window-x="0"
     inkscape:window-y="32"
     inkscape:window-maximized="1"
     inkscape:current-layer="surface1149" />
  <g
     id="surface1149"
     transform="matrix(0.04445857,0,0,0.04445857,1.6,1.6)">
    <g
       clip-path="url(#clip1)"
       id="g10"
       style="clip-rule:nonzero" />
    <path
       id="path16"
       style="fill-opacity:1;fill-rule:nonzero;stroke:none"
       d="m 531.02948,154.78637 c 0,20.99545 -17.02137,38.01681 -38.02173,38.01681 -20.99546,0 -38.01681,-17.02136 -38.01681,-38.01681 0,-21.00037 17.02135,-38.01681 38.01681,-38.01681 21.00036,0 38.02173,17.01644 38.02173,38.01681 M 323.8995,429.50066 c -58.32451,0 -105.60605,-47.28154 -105.60605,-105.60115 0,-58.32453 47.28154,-105.60606 105.60605,-105.60606 58.31963,0 105.60117,47.28153 105.60117,105.60606 0,58.31961 -47.28154,105.60115 -105.60117,105.60115 z m 0,-268.28891 c -89.85208,0 -162.68775,72.83567 -162.68775,162.68776 0,89.8472 72.83567,162.68286 162.68775,162.68286 89.84721,0 162.68288,-72.83566 162.68288,-162.68286 0,-89.85209 -72.83567,-162.68776 -162.68288,-162.68776 M 193.27968,8.9971526 C 159.55628,10.534723 136.5271,15.889197 116.37658,23.719516 95.543221,31.815091 77.878348,42.651776 60.262601,60.262611 42.651766,77.873447 31.819996,95.543231 23.724414,116.37658 15.894103,136.5271 10.53471,159.55628 8.9971405,193.27968 l 0,261.23476 c 1.5375695,33.72339 6.8969625,56.75257 14.7272735,76.9031 8.095582,20.83335 18.927352,38.49822 36.538187,56.11396 17.615747,17.61084 35.28062,28.44261 56.113979,36.5382 20.15052,7.83523 43.1797,13.1897 76.9031,14.72727 l 261.23476,0 c 33.7234,-1.53757 56.75257,-6.89204 76.9031,-14.72727 20.83336,-8.09559 38.50314,-18.92736 56.11397,-36.5382 17.61084,-17.61574 28.44753,-35.28061 36.5431,-56.11396 7.83031,-20.15053 13.18479,-43.17971 14.72237,-76.9031 l 0,-261.23476 C 637.2594,159.55628 631.90492,136.5271 624.07461,116.37658 615.97904,95.543231 605.14235,77.873447 587.53151,60.262611 569.92068,42.651776 552.2509,31.815091 531.41754,23.719516 511.26701,15.889197 488.23784,10.534723 454.51444,8.9971526 Z M 451.9158,66.019905 c 30.88896,1.40985 47.65978,6.567834 58.82559,10.905455 14.78624,5.747469 25.34291,12.614959 36.4252,23.70217 11.08721,11.08229 17.9547,21.63898 23.70217,36.42519 4.33762,11.16582 9.4956,27.93664 10.90546,58.82559 l 0,256.03749 c -1.40986,30.88405 -6.56784,47.65978 -10.90546,58.82559 -5.74747,14.78623 -12.61496,25.33799 -23.70217,36.42521 -11.08229,11.0872 -21.63896,17.94978 -36.4252,23.69725 -11.16581,4.34253 -27.93663,9.50051 -58.82559,10.91036 l -256.03749,0 C 164.99426,580.36436 148.21854,575.20638 137.05272,570.86385 122.2665,565.11638 111.71474,558.2538 100.62752,547.1666 89.540308,536.07938 82.677732,525.52762 76.930262,510.74139 72.592643,499.57558 67.429744,482.79985 66.019895,451.9158 l 0,-256.03749 c 1.409849,-30.88895 6.572748,-47.65977 10.910367,-58.82559 5.74747,-14.78621 12.610046,-25.3429 23.697258,-36.42519 11.08722,-11.087211 21.63898,-17.954701 36.4252,-23.70217 11.16582,-4.337621 27.94154,-9.495605 58.82559,-10.905455"
       inkscape:connector-curvature="0" />
  </g>
</svg>
