<?xml version="1.0" encoding="UTF-8" standalone="no"?>
<svg
   xmlns:dc="http://purl.org/dc/elements/1.1/"
   xmlns:cc="http://creativecommons.org/ns#"
   xmlns:rdf="http://www.w3.org/1999/02/22-rdf-syntax-ns#"
   xmlns:svg="http://www.w3.org/2000/svg"
   xmlns="http://www.w3.org/2000/svg"
   xmlns:sodipodi="http://sodipodi.sourceforge.net/DTD/sodipodi-0.dtd"
   xmlns:inkscape="http://www.inkscape.org/namespaces/inkscape"
   width="24"
   height="24"
   viewBox="0 0 24 24"
   id="svg2"
   version="1.1"
   inkscape:version="0.91 r13725"
   sodipodi:docname="more-right.svg">
  <metadata
     id="metadata10">
    <rdf:RDF>
      <cc:Work
         rdf:about="">
        <dc:format>image/svg+xml</dc:format>
        <dc:type
           rdf:resource="http://purl.org/dc/dcmitype/StillImage" />
        <dc:title></dc:title>
      </cc:Work>
    </rdf:RDF>
  </metadata>
  <defs
     id="defs8" />
  <sodipodi:namedview
     pagecolor="#ffffff"
     bordercolor="#666666"
     borderopacity="1"
     objecttolerance="10"
     gridtolerance="10"
     guidetolerance="10"
     inkscape:pageopacity="0"
     inkscape:pageshadow="2"
     inkscape:window-width="640"
     inkscape:window-height="480"
     id="namedview6"
     showgrid="false"
     inkscape:zoom="15.542201"
     inkscape:cx="6.9954359"
     inkscape:cy="11.211808"
     inkscape:current-layer="svg2" />
  <path
     id="path4-5"
     d="m 19.5,7.0000003 c 1.375,0 2.5,-1.125 2.5,-2.5000001 0,-1.375 -1.125,-2.5 -2.5,-2.5 -1.375,0 -2.5,1.125 -2.5,2.5 0,1.3750001 1.125,2.5000001 2.5,2.5000001 z M 19.5,9.5 c -1.375,0 -2.5,1.125 -2.5,2.5 0,1.375 1.125,2.5 2.5,2.5 1.375,0 2.5,-1.125 2.5,-2.5 0,-1.375 -1.125,-2.5 -2.5,-2.5 z m 0,7.5 C 18.125,17 17,18.125 17,19.5 17,20.875 18.125,22 19.5,22 20.875,22 22,20.875 22,19.5 22,18.125 20.875,17 19.5,17 Z M 2,4.35 9.65,12 2,19.65 4.35,22 14.35,12 4.35,2 Z"
     inkscape:connector-curvature="0" />
</svg>
