<?xml version="1.0" encoding="UTF-8" standalone="no"?>
<svg
   xmlns:dc="http://purl.org/dc/elements/1.1/"
   xmlns:cc="http://creativecommons.org/ns#"
   xmlns:rdf="http://www.w3.org/1999/02/22-rdf-syntax-ns#"
   xmlns:svg="http://www.w3.org/2000/svg"
   xmlns="http://www.w3.org/2000/svg"
   xmlns:sodipodi="http://sodipodi.sourceforge.net/DTD/sodipodi-0.dtd"
   xmlns:inkscape="http://www.inkscape.org/namespaces/inkscape"
   fill="#000000"
   height="24"
   viewBox="0 0 24 24"
   width="24"
   id="svg2"
   version="1.1"
   inkscape:version="0.91 r13725"
   sodipodi:docname="person_add.svg">
  <metadata
     id="metadata12">
    <rdf:RDF>
      <cc:Work
         rdf:about="">
        <dc:format>image/svg+xml</dc:format>
        <dc:type
           rdf:resource="http://purl.org/dc/dcmitype/StillImage" />
        <dc:title />
      </cc:Work>
    </rdf:RDF>
  </metadata>
  <defs
     id="defs10" />
  <sodipodi:namedview
     pagecolor="#ffffff"
     bordercolor="#666666"
     borderopacity="1"
     objecttolerance="10"
     gridtolerance="10"
     guidetolerance="10"
     inkscape:pageopacity="0"
     inkscape:pageshadow="2"
     inkscape:window-width="1855"
     inkscape:window-height="1056"
     id="namedview8"
     showgrid="false"
     inkscape:zoom="9.8333333"
     inkscape:cx="-2.6949153"
     inkscape:cy="12"
     inkscape:window-x="65"
     inkscape:window-y="24"
     inkscape:window-maximized="1"
     inkscape:current-layer="svg2" />
  <path
     id="path6"
     d="m 14.75821,13.986194 c -2.750698,0 -8.2417922,1.45475 -8.2417922,4.342538 l 0,2.171268 L 23,20.5 23,18.328732 c 0,-2.887788 -5.491093,-4.342538 -8.24179,-4.342538 z m -8.1145533,-3.677612 0,-3.386194 -2.2574628,0 0,3.386194 -3.3861939,0 0,2.257462 3.3861939,0 0,3.386194 2.2574628,0 0,-3.386194 3.3861943,0 0,-2.257462 -3.3861943,0 z m 8.2623143,1.506343 c 2.399251,0 4.342537,-1.943285 4.342537,-4.342537 0,-2.3992518 -1.943286,-4.3425373 -4.342537,-4.3425373 -2.399252,0 -4.342538,1.9432855 -4.342538,4.3425373 0,2.399252 1.943286,4.342537 4.342538,4.342537 z"
     inkscape:connector-curvature="0" />
</svg>
