<?xml version="1.0" encoding="UTF-8" standalone="no"?>
<svg
   xmlns:dc="http://purl.org/dc/elements/1.1/"
   xmlns:cc="http://creativecommons.org/ns#"
   xmlns:rdf="http://www.w3.org/1999/02/22-rdf-syntax-ns#"
   xmlns:svg="http://www.w3.org/2000/svg"
   xmlns="http://www.w3.org/2000/svg"
   xmlns:sodipodi="http://sodipodi.sourceforge.net/DTD/sodipodi-0.dtd"
   xmlns:inkscape="http://www.inkscape.org/namespaces/inkscape"
   width="24"
   height="24"
   viewBox="0 0 24 24"
   id="svg2"
   version="1.1"
   inkscape:version="0.91 r13725"
   sodipodi:docname="pinterest-clear.svg">
  <metadata
     id="metadata10">
    <rdf:RDF>
      <cc:Work
         rdf:about="">
        <dc:format>image/svg+xml</dc:format>
        <dc:type
           rdf:resource="http://purl.org/dc/dcmitype/StillImage" />
      </cc:Work>
    </rdf:RDF>
  </metadata>
  <defs
     id="defs8" />
  <sodipodi:namedview
     pagecolor="#ffffff"
     bordercolor="#666666"
     borderopacity="1"
     objecttolerance="10"
     gridtolerance="10"
     guidetolerance="10"
     inkscape:pageopacity="0"
     inkscape:pageshadow="2"
     inkscape:window-width="640"
     inkscape:window-height="480"
     id="namedview6"
     showgrid="false"
     inkscape:zoom="10.541667"
     inkscape:cx="-12"
     inkscape:cy="12"
     inkscape:current-layer="svg2" />
  <path
     d="M 12.71682,2 C 7.2544364,2 4.5,5.9131532 4.5,9.1760495 c 0,1.9778645 0.7502707,3.7338175 2.3541199,4.3879435 0.2647254,0.108377 0.49975,0.0051 0.5759394,-0.285132 0.052945,-0.20256 0.1782054,-0.713476 0.2350244,-0.925068 0.078772,-0.285132 0.04778,-0.387057 -0.1640006,-0.638645 -0.4635924,-0.544461 -0.7593102,-1.254067 -0.7593102,-2.253966 0,-2.9029327 2.1733322,-5.5013799 5.6612511,-5.5013799 3.088895,0 4.785721,1.8875513 4.785721,4.4021361 0,3.3132138 -1.468258,6.1077718 -3.646755,6.1077718 -1.203532,0 -2.103599,-0.993449 -1.814338,-2.212681 0.34608,-1.457918 1.014995,-3.0280816 1.014995,-4.0770079 0,-0.9405502 -0.506206,-1.7236969 -1.549612,-1.7236969 -1.2293588,0 -2.2185289,1.2695492 -2.2185289,2.972603 0,1.0850518 0.3693233,1.8178808 0.3693233,1.8178808 l -1.4798786,6.260014 c -0.439057,1.857876 -0.065859,4.136356 -0.032283,4.367301 0.016787,0.13418 0.1924101,0.169014 0.271182,0.0658 0.1136389,-0.148373 1.5793132,-1.957222 2.0751882,-3.760911 0.143341,-0.510916 0.809674,-3.15452 0.809674,-3.15452 0.401607,0.759923 1.5664,1.429534 2.808673,1.429534 C 17.493502,16.454026 20,13.089204 20,8.5799816 19.9961,5.1738739 17.107391,2.0000009 12.716821,2.0000009 Z"
     id="path4"
     inkscape:connector-curvature="0"
     style="fill:#444444" />
</svg>
