<?xml version="1.0" encoding="UTF-8" standalone="no"?>
<svg
   xmlns:dc="http://purl.org/dc/elements/1.1/"
   xmlns:cc="http://creativecommons.org/ns#"
   xmlns:rdf="http://www.w3.org/1999/02/22-rdf-syntax-ns#"
   xmlns:svg="http://www.w3.org/2000/svg"
   xmlns="http://www.w3.org/2000/svg"
   xmlns:sodipodi="http://sodipodi.sourceforge.net/DTD/sodipodi-0.dtd"
   xmlns:inkscape="http://www.inkscape.org/namespaces/inkscape"
   width="28"
   height="28"
   viewBox="0 0 28 28"
   id="svg2"
   version="1.1"
   inkscape:version="0.91 r13725"
   sodipodi:docname="pinterest.svg">
  <metadata
     id="metadata10">
    <rdf:RDF>
      <cc:Work
         rdf:about="">
        <dc:format>image/svg+xml</dc:format>
        <dc:type
           rdf:resource="http://purl.org/dc/dcmitype/StillImage" />
      </cc:Work>
    </rdf:RDF>
  </metadata>
  <defs
     id="defs8" />
  <sodipodi:namedview
     pagecolor="#ffffff"
     bordercolor="#666666"
     borderopacity="1"
     objecttolerance="10"
     gridtolerance="10"
     guidetolerance="10"
     inkscape:pageopacity="0"
     inkscape:pageshadow="2"
     inkscape:window-width="640"
     inkscape:window-height="480"
     id="namedview6"
     showgrid="false"
     inkscape:zoom="9.0357143"
     inkscape:cx="-14"
     inkscape:cy="14"
     inkscape:current-layer="svg2" />
  <path
     d="m 25.999,14.000999 q 0,3.266 -1.608933,6.023 -1.608933,2.757 -4.366818,4.367 -2.757885,1.61 -6.022749,1.609 -1.733928,0 -3.405858,-0.5 0.921961,-1.453 1.218949,-2.562 0.140994,-0.531 0.843965,-3.297 0.312987,0.609 1.140952,1.055 0.827966,0.446 1.780927,0.445 1.89092,0 3.374859,-1.07 1.483937,-1.07 2.296904,-2.945 0.812966,-1.875 0.811966,-4.219 0,-1.781 -0.929962,-3.3439996 -0.92996,-1.563 -2.694887,-2.547 -1.764926,-0.984 -3.983834,-0.984 -1.640932,0 -3.062872,0.453 -1.4219412,0.453 -2.4138999,1.203 -0.9919587,0.75 -1.702929,1.727 -0.7109705,0.9769996 -1.0469565,2.0229996 -0.335986,1.046 -0.335986,2.094 0,1.625 0.624974,2.859 0.624974,1.234 1.8279238,1.734 0.4689805,0.187 0.5939753,-0.313 0.030999,-0.109 0.1249948,-0.484 0.093996,-0.375 0.1249948,-0.469 0.093996,-0.359 -0.1719929,-0.672 -0.7969668,-0.953 -0.7969668,-2.359 0,-2.359 1.632932,-4.0549996 1.6329324,-1.696 4.2728214,-1.695 2.358902,0 3.679847,1.281 1.320945,1.2809996 1.319945,3.3279996 0,2.656 -1.069955,4.516 -1.069955,1.86 -2.741886,1.859 -0.95296,0 -1.530936,-0.68 -0.577976,-0.68 -0.358985,-1.633 0.124994,-0.547 0.413982,-1.461 0.288988,-0.914 0.468981,-1.609 0.179992,-0.695 0.179992,-1.18 0,-0.781 -0.421982,-1.297 -0.421982,-0.516 -1.20295,-0.516 -0.968959,0 -1.640931,0.891 -0.671972,0.891 -0.671972,2.219 0,1.141 0.390983,1.906 l -1.5469352,6.531 q -0.2659889,1.094 -0.2029915,2.766 -3.218866,-1.422 -5.2027834,-4.391 Q 2,17.638999 2,13.998999 q 0,-3.266 1.6119326,-6.0229996 1.608933,-2.757 4.3668181,-4.367 2.7578853,-1.61 6.0227493,-1.609 3.264864,10e-4 6.022749,1.609 2.757885,1.608 4.366818,4.367 Q 26,10.734999 26,13.998999 Z"
     id="path4"
     inkscape:connector-curvature="0"
     style="fill:#444444" />
</svg>
