<svg xmlns="http://www.w3.org/2000/svg" fill="currentcolor" viewBox="0 0 48 48" class="v-icon"><path d="M21.2 6.723l1.232 5.946c.644.115.952.764.476 1.16-.476.397-1.036-.09-1.148-.48v-.002l-5.6-1.133v5.664l5.6-1.134c.218-.68.728-.85 1.148-.453.42.396-.03 1.048-.42 1.133l-1.4 8.212h5.6l-1.4-8.212c-.616-.235-.784-.652-.448-1.105.364-.452 1.092-.123 1.176.426l5.6 1.133v-5.665l-5.6 1.133c-.2.736-.896.85-1.232.34-.336-.51.026-.935.56-1.048l1.12-5.947zm-15.4-3.2v19.822S6.948 39.77 24 46c17.08-6.23 18.2-22.655 18.2-22.655V3.523c-12.672-1.894-23.098-2.163-36.4 0zm33.6 2.633v16.99S38.708 38.39 24 43.254C9.76 38.39 8.6 23.43 8.6 23.43V6.44c9.643-2.243 21.092-1.968 30.8-.284zM24 26.83c-.143 1.075-1.624 1.13-1.148 3.114h-.027c-.616 0-1.148.566-1.148 1.246s.504 1.246 1.148 1.246c.208 0 .42-.063.588-.18-.013 1.36-1.176 2.437-2.576.34.227-.234.364-.565.364-.905.002-.68-.503-1.245-1.147-1.245-.616 0-1.148.566-1.148 1.246 0 .426.19.794.504 1.05-1.065 2.207-1.345 1.33-1.877.15.336-.222.476-.537.476-.96 0-.68-.505-1.247-1.15-1.247-.27 0-.447.008-.643.204-.392-.37-.896-.68-1.54-.85-.165.028-.672.25-.588.396.7.935 2.127 2.35 4.2 7.363h11.76c1.93-5.097 3.36-6.513 4.2-7.363.095-.138-.42-.368-.59-.396-.643.147-1.147.453-1.54.85-.203-.196-.363-.202-.643-.204-.616 0-1.148.566-1.148 1.246 0 .452.117.735.475.96-.532 1.19-.812 2.07-1.876-.15.307-.23.503-.624.503-1.05 0-.68-.504-1.245-1.148-1.245-.616 0-1.148.566-1.148 1.246 0 .34.13.68.364.907-1.315 2.01-2.575 1.02-2.575-.34.177.116.392.18.588.18.616-.002 1.148-.568 1.148-1.247 0-.68-.503-1.246-1.147-1.246h-.026c.476-1.898-1.008-1.983-1.148-3.115z"/></svg>
