<svg xmlns="http://www.w3.org/2000/svg" width="32" height="32" viewBox="0 0 32 32">
    <path d="M16.087 17.71c-.232.615-1.158.784-.844 2.05-1.181-.027-.954 1.882.37 1.474-.008.868-.775 1.555-1.698.218.99-1.808-2.25-1.578-.94.093-1.253 1.737-1.194-.174-1.298-.832-.908.678-1.527-.69-2.211-.64.461.597 1.402 1.5 2.769 4.697h7.754c1.273-3.25 2.215-4.154 2.769-4.696-1.11.026-1.13 1.268-2.295.477.21 1.16-.451 2.495-1.215.993 1.335-1.583-1.922-1.958-.942-.09-.867 1.281-1.698.65-1.698-.218 1.333.357 1.395-1.456.371-1.476.3-1.145-.66-1.437-.892-2.05zM4 2.907v12.644S4.757 26.027 16 30c11.262-3.973 12-14.449 12-14.449V2.907c-8.2-1.272-16.589-1.145-24 0zm22.154 1.68v10.837C25.019 22.022 21.98 25.504 16 28.248c-5.388-2.787-8.499-5.45-10.154-12.644V4.77c6.868-1.364 13.84-1.246 20.308-.182zm-12 .362l.812 3.793c1.424.16-.154 1.8-.443.432l-3.692-.722v3.613l3.692-.724c.261-1.289 1.7.204.48.434l-.923 5.238h3.692l-.923-5.238c-1.233-.353.297-1.643.48-.433l3.693.723V8.452l-3.693.722c-.44 1.398-1.839-.449-.443-.452l.739-3.793z"/>
</svg>
