<svg xmlns="http://www.w3.org/2000/svg" width="28" height="28" viewBox="0 0 28 28">
    <path d="M25.999 6.374q-1.02 1.531-2.467 2.61.016.218.016.655 0 2.031-.579 4.055-.579 2.025-1.76 3.884-1.18 1.859-2.809 3.289-1.63 1.43-3.928 2.281-2.3.851-4.919.852Q5.427 24 2 21.734q.533.063 1.188.063 3.427 0 6.107-2.156-1.6-.031-2.864-1.008-1.264-.977-1.735-2.492.503.078.928.078.655 0 1.295-.172-1.706-.36-2.825-1.742-1.118-1.384-1.118-3.212v-.063q1.035.594 2.223.641-1.005-.688-1.6-1.797-.594-1.109-.593-2.406 0-1.375.67-2.547Q5.52 7.249 8.161 8.648q2.642 1.4 5.658 1.555-.122-.594-.122-1.156 0-2.094 1.44-3.57Q16.575 4.001 18.615 4q2.132 0 3.593 1.594 1.66-.328 3.121-1.219-.563 1.797-2.162 2.781Q24.584 7 26 6.376z" fill="#444"/>
</svg>
