<?xml version="1.0" encoding="UTF-8" standalone="no"?>
<!-- Generator: Adobe Illustrator 19.1.0, SVG Export Plug-In . SVG Version: 6.00 Build 0)  -->

<svg
   xmlns:dc="http://purl.org/dc/elements/1.1/"
   xmlns:cc="http://creativecommons.org/ns#"
   xmlns:rdf="http://www.w3.org/1999/02/22-rdf-syntax-ns#"
   xmlns:svg="http://www.w3.org/2000/svg"
   xmlns="http://www.w3.org/2000/svg"
   xmlns:sodipodi="http://sodipodi.sourceforge.net/DTD/sodipodi-0.dtd"
   xmlns:inkscape="http://www.inkscape.org/namespaces/inkscape"
   version="1.1"
   x="0px"
   y="0px"
   viewBox="0 0 24 24"
   style="enable-background:new 0 0 24 24;"
   xml:space="preserve"
   id="svg2"
   inkscape:version="0.91 r13725"
   sodipodi:docname="uni-link.svg"><metadata
     id="metadata12"><rdf:RDF><cc:Work
         rdf:about=""><dc:format>image/svg+xml</dc:format><dc:type
           rdf:resource="http://purl.org/dc/dcmitype/StillImage" /><dc:title></dc:title></cc:Work></rdf:RDF></metadata><defs
     id="defs10" /><sodipodi:namedview
     pagecolor="#ffffff"
     bordercolor="#666666"
     borderopacity="1"
     objecttolerance="10"
     gridtolerance="10"
     guidetolerance="10"
     inkscape:pageopacity="0"
     inkscape:pageshadow="2"
     inkscape:window-width="1871"
     inkscape:window-height="1056"
     id="namedview8"
     showgrid="false"
     inkscape:zoom="9.8333333"
     inkscape:cx="-5.0338983"
     inkscape:cy="12"
     inkscape:window-x="49"
     inkscape:window-y="24"
     inkscape:window-maximized="1"
     inkscape:current-layer="external" /><g
     id="external"><path
       d="m 19,13 0,6 c 0,1.105 -0.895,2 -2,2 L 5,21 C 3.895,21 3,20.105 3,19 L 3,7 C 3,5.895 3.895,5 5,5 l 6,0 0,2 -6,0 0,12 12,0 0,-6 2,0 z M 13,3 13,5 17.586,5 9.793,12.793 11.207,14.207 19,6.414 19,11 l 2,0 0,-8 -8,0 z"
       id="outlink"
       inkscape:connector-curvature="0"
       class="outlink" /><path
       inkscape:connector-curvature="0"
       d="m 12,3 -1.58625,1.58625 6.2775,6.28875 -13.69125,0 0,2.25 13.69125,0 -6.2775,6.28875 L 12,21 21,12 Z"
       id="inlink"
       class="inlink" /></g><g
     id="Layer_1" /></svg>