<svg xmlns="http://www.w3.org/2000/svg" width="28" height="28" viewBox="0 0 28 28">
    <path d="M19.143 14.029q0-.496-.402-.724L11.884 9.02q-.415-.268-.871-.027-.442.241-.442.75v8.57q0 .51.442.75.214.108.415.108.268 0 .455-.134l6.857-4.285q.402-.228.402-.723zm6.857 0q0 1.285-.014 2.009-.013.723-.114 1.828-.1 1.104-.301 1.975-.215.978-.924 1.647-.71.67-1.66.777-2.974.335-8.987.335t-8.986-.335q-.95-.107-1.667-.777-.717-.669-.931-1.647-.188-.87-.288-1.975Q2 16.76 2 16.038v-2.01-2.008q0-.724.128-1.828.1-1.105.301-1.976.215-.978.924-1.647.71-.67 1.66-.777Q7.988 5.457 14 5.457t8.986.335q.95.107 1.667.777.717.67.931 1.647.188.87.288 1.976.1 1.104.114 1.828.014.723.014 2.009z" fill="#444"/>
</svg>
